<?xml version="1.0" encoding="utf-8"?>
<!-- Generator: Adobe Illustrator 23.0.1, SVG Export Plug-In . SVG Version: 6.00 Build 0)  -->
<svg version="1.1" xmlns="http://www.w3.org/2000/svg" xmlns:xlink="http://www.w3.org/1999/xlink" x="0px" y="0px"
	 viewBox="0 0 227 258" style="enable-background:new 0 0 227 258;" xml:space="preserve">
<style type="text/css">
	.st0{fill:none;}
	.st1{fill:none;stroke:#231F20;stroke-linecap:round;stroke-miterlimit:10;stroke-dasharray:0.1,3,0.1,3,0.1,6;}
	.st2{fill:none;stroke:#231F20;stroke-width:0.3;stroke-linejoin:bevel;}
	.st3{fill:none;stroke:#231F20;stroke-width:0.3;}
	.st4{display:none;}
	.st5{fill:#96FAFF;}
	.st6{fill:url(#Hatching_Double);}
	.st7{fill:#FF45C1;}
	.st8{fill:url(#Circle_Lines);}
	.st9{fill:#FFD239;}
	.st10{fill:url(#Mezzotint_Irregular);}
	.st11{fill:none;stroke:#000000;stroke-width:2;stroke-miterlimit:10;}
	.st12{fill:none;stroke:#000000;stroke-miterlimit:10;}
	.st13{fill:none;stroke:#000000;stroke-width:0.75;stroke-miterlimit:10;}
	.st14{fill:url(#Hatching_Dense);stroke:#000000;stroke-width:2;stroke-miterlimit:10;}
	.st15{fill:none;stroke:#000000;stroke-width:2;stroke-linecap:round;stroke-linejoin:round;stroke-miterlimit:10;}
	.st16{fill:none;stroke:#000000;stroke-width:3;stroke-miterlimit:10;}
	.st17{display:none;fill:none;stroke:#000000;stroke-width:0.5;stroke-linejoin:round;stroke-miterlimit:10;}
	.st18{fill:none;stroke:#000000;stroke-width:0.5;stroke-miterlimit:10;}
	.st19{fill:#FFFFFF;stroke:#000000;stroke-width:0.5;stroke-linecap:round;stroke-linejoin:round;stroke-miterlimit:10;}
	.st20{fill:none;stroke:#000000;stroke-linecap:round;stroke-linejoin:round;stroke-miterlimit:10;}
	.st21{fill:none;stroke:#000000;stroke-width:0.5;stroke-linecap:round;stroke-linejoin:round;stroke-miterlimit:10;}
	.st22{fill:none;stroke:#000000;stroke-width:0.25;stroke-linecap:round;stroke-linejoin:round;stroke-miterlimit:10;}
	.st23{fill:none;stroke:#000000;stroke-width:0.75;stroke-linecap:round;stroke-linejoin:round;stroke-miterlimit:10;}
</style>
<pattern  x="-11" y="-88" width="85.5" height="93" patternUnits="userSpaceOnUse" id="Circle_Lines" viewBox="86 -93 85.5 93" style="overflow:visible;">
	<g>
		<rect x="86" y="-93" class="st0" width="85.5" height="93"/>
		<g>
			<path class="st1" d="M171.5-89.3c19.3-0.7,40.5-0.7,69,0.3c4.3,0.2,11.3-0.3,16.5-0.3"/>
			<path class="st1" d="M171.5-82.4c24.5-2.6,45.7,1.2,63-0.6c3.7-0.4,12.8,0.5,22.5,0.6"/>
			<path class="st1" d="M171.5-75.5c21.5-1.5,27.3,1.4,59-1.2c9-0.8,23.5,1.4,26.5,1.2"/>
			<path class="st1" d="M171.5-70.1c14.4,0.7,30.7,2.3,49.6,0.4c9.8-1,22.6-0.1,35.9-0.4"/>
			<path class="st1" d="M171.5-56.3c18.1-0.3,22.3-1.9,56-0.2c14.8,0.8,22.5,1,29.5,0.2"/>
			<path class="st1" d="M171.5-50.1c12.8,0.5,24.5-1.4,45.6,0.1c16.5,1.2,29.9-1.4,39.9-0.1"/>
			<path class="st1" d="M171.5-36.6c20.5-0.4,17.5-0.7,45,0.1c31.5,1,40-0.1,40.5-0.1"/>
			<path class="st1" d="M171.5-29.3c20.9-0.3,17.6,1,50.2-0.9c2.1-0.1,26.3,2.3,35.3,0.9"/>
			<path class="st1" d="M171.5-24.1c14.3,1,32,1.6,50.6,0.7c9.5-0.5,20.4,0.4,34.9-0.7"/>
			<path class="st1" d="M171.5-17.1c20.9,0.5,52.5-0.4,73.5,0.3c1.4,0.1,10.5-0.3,12-0.3"/>
			<path class="st1" d="M171.5-9.6c30-1.9,65,1.1,79.5,0.1c1.8-0.1,4.1,0,6-0.1"/>
			<path class="st1" d="M171.5-3.5c10.7,0.2,21.5-1.1,38.5,0c24,1.5,41.8,0.1,47,0"/>
			<path class="st1" d="M171.5-42.7c22.1-0.6,46.5-1.8,57.7-0.8c13.8,1.2,26.9,0.8,27.8,0.8"/>
			<path class="st1" d="M171.5-63.3c18.1-0.3,22-1.2,46-0.2c21.5,0.9,30.5,1,39.5,0.2"/>
		</g>
		<g>
			<path class="st1" d="M86-89.3c19.3-0.7,40.5-0.7,69,0.3c4.3,0.2,11.3-0.3,16.5-0.3"/>
			<path class="st1" d="M86-82.4c24.5-2.6,45.7,1.2,63-0.6c3.7-0.4,12.8,0.5,22.5,0.6"/>
			<path class="st1" d="M86-75.5c21.5-1.5,27.3,1.4,59-1.2c9-0.8,23.5,1.4,26.5,1.2"/>
			<path class="st1" d="M86-70.1c14.4,0.7,30.7,2.3,49.6,0.4c9.8-1,22.6-0.1,35.9-0.4"/>
			<path class="st1" d="M86-56.3c18.1-0.3,22.3-1.9,56-0.2c14.8,0.8,22.5,1,29.5,0.2"/>
			<path class="st1" d="M86-50.1c12.8,0.5,24.5-1.4,45.6,0.1c16.5,1.2,29.9-1.4,39.9-0.1"/>
			<path class="st1" d="M86-36.6c20.5-0.4,17.5-0.7,45,0.1c31.5,1,40-0.1,40.5-0.1"/>
			<path class="st1" d="M86-29.3c20.9-0.3,17.6,1,50.2-0.9c2.1-0.1,26.3,2.3,35.3,0.9"/>
			<path class="st1" d="M86-24.1c14.3,1,32,1.6,50.6,0.7c9.5-0.5,20.4,0.4,34.9-0.7"/>
			<path class="st1" d="M86-17.1c20.9,0.5,52.5-0.4,73.5,0.3c1.4,0.1,10.5-0.3,12-0.3"/>
			<path class="st1" d="M86-9.6c30-1.9,65,1.1,79.5,0.1c1.8-0.1,4.1,0,6-0.1"/>
			<path class="st1" d="M86-3.5c10.7,0.2,21.5-1.1,38.5,0c24,1.5,41.8,0.1,47,0"/>
			<path class="st1" d="M86-42.7c22.1-0.6,46.5-1.8,57.7-0.8c13.8,1.2,26.9,0.8,27.8,0.8"/>
			<path class="st1" d="M86-63.3c18.1-0.3,22-1.2,46-0.2c21.5,0.9,30.5,1,39.5,0.2"/>
		</g>
		<g>
			<path class="st1" d="M0.5-89.3C19.8-90,41-90,69.5-89c4.3,0.2,11.3-0.3,16.5-0.3"/>
			<path class="st1" d="M0.5-82.4C25-85,46.2-81.2,63.5-83c3.7-0.4,12.8,0.5,22.5,0.6"/>
			<path class="st1" d="M0.5-75.5c21.5-1.5,27.3,1.4,59-1.2c9-0.8,23.5,1.4,26.5,1.2"/>
			<path class="st1" d="M0.5-70.1c14.4,0.7,30.7,2.3,49.6,0.4c9.8-1,22.6-0.1,35.9-0.4"/>
			<path class="st1" d="M0.5-56.3c18.1-0.3,22.3-1.9,56-0.2c14.8,0.8,22.5,1,29.5,0.2"/>
			<path class="st1" d="M0.5-50.1c12.8,0.5,24.5-1.4,45.6,0.1c16.5,1.2,29.9-1.4,39.9-0.1"/>
			<path class="st1" d="M0.5-36.6C21-37,18-37.4,45.5-36.5c31.5,1,40-0.1,40.5-0.1"/>
			<path class="st1" d="M0.5-29.3c20.9-0.3,17.6,1,50.2-0.9C52.8-30.4,77-28,86-29.3"/>
			<path class="st1" d="M0.5-24.1c14.3,1,32,1.6,50.6,0.7c9.5-0.5,20.4,0.4,34.9-0.7"/>
			<path class="st1" d="M0.5-17.1C21.4-16.6,53-17.5,74-16.8c1.4,0.1,10.5-0.3,12-0.3"/>
			<path class="st1" d="M0.5-9.6c30-1.9,65,1.1,79.5,0.1c1.8-0.1,4.1,0,6-0.1"/>
			<path class="st1" d="M0.5-3.5C11.2-3.3,22-4.6,39-3.5c24,1.5,41.8,0.1,47,0"/>
			<path class="st1" d="M0.5-42.7c22.1-0.6,46.5-1.8,57.7-0.8c13.8,1.2,26.9,0.8,27.8,0.8"/>
			<path class="st1" d="M0.5-63.3c18.1-0.3,22-1.2,46-0.2C68-62.6,77-62.5,86-63.3"/>
		</g>
	</g>
</pattern>
<pattern  x="-11" y="-88" width="72" height="72" patternUnits="userSpaceOnUse" id="Hatching_Dense" viewBox="25.5 -92.8 72 72" style="overflow:visible;">
	<g>
		<rect x="25.5" y="-92.8" class="st0" width="72" height="72"/>
		<g>
			<polyline class="st2" points="56.3,-21.5 58,-19.8 75.7,-2 			"/>
			<polyline class="st3" points="60.7,-21.6 62.6,-19.7 70.1,-12 			"/>
			<polyline class="st2" points="71.1,-21.5 71.3,-19.5 72,-8.5 			"/>
			<polyline class="st2" points="91.2,-21.5 91.7,-19.9 96.4,-3.8 			"/>
			<polyline class="st2" points="74.4,-21.5 74.5,-19.5 75.9,-4.8 			"/>
			<polyline class="st2" points="79,-21.5 79.2,-19.7 81.1,-5 			"/>
			<polyline class="st2" points="82.7,-21.5 82.9,-19.7 84.9,-6 			"/>
			<polyline class="st2" points="87.7,-21.5 88.1,-19.8 91.7,-4.7 			"/>
			<polyline class="st3" points="66.3,-21.6 68,-19.9 69.6,-18.4 			"/>
			<polyline class="st3" points="51.1,-21.6 52.6,-19.7 68.3,-0.1 			"/>
			<polyline class="st3" points="29.7,-22 32.2,-19.5 35.1,-16.7 			"/>
			<polyline class="st3" points="26.3,-21.3 27.5,-19.9 32.4,-14 			"/>
			<polyline class="st2" points="94.9,-21.5 97,-18.6 98.2,-16.9 			"/>
			<polyline class="st2" points="94.3,-21.9 95.2,-19.7 97,-15.4 98,-12.8 			"/>
		</g>
		<g>
			<polyline class="st2" points="22.9,-21.5 25,-18.6 26.2,-16.9 			"/>
			<polyline class="st2" points="22.3,-21.9 23.2,-19.7 25,-15.4 26,-12.8 			"/>
		</g>
		<g>
			<polyline class="st2" points="97,-90.6 98.2,-88.9 102,-83.6 			"/>
			<polyline class="st2" points="97,-87.4 98,-84.8 100.4,-79.1 			"/>
			<polyline class="st3" points="96.8,-70.7 98.1,-72.1 106.2,-81.4 			"/>
			<polyline class="st3" points="96.7,-61.9 98.2,-63.3 115.7,-80.9 			"/>
			<polyline class="st3" points="96.9,-75.5 98.2,-76.9 102.7,-81.5 			"/>
			<polyline class="st3" points="96.9,-67.2 98.2,-68.4 111,-81.2 			"/>
			<polyline class="st2" points="96.7,-38 98.2,-39 102.6,-41.8 			"/>
			<polyline class="st3" points="96.7,-34.7 98.3,-35.8 105.9,-40.5 			"/>
			<polyline class="st3" points="96.5,-28.8 98.2,-30 109.4,-37.5 			"/>
			<polyline class="st3" points="99.7,-27.5 98.2,-26.7 96.5,-25.7 			"/>
			<polyline class="st3" points="96.6,-41.3 98,-41.1 99.9,-40.8 			"/>
			<polyline class="st3" points="99.2,-44.5 98.2,-44.9 96.5,-45.4 			"/>
			<polyline class="st2" points="100.2,-42.7 98.1,-43.1 96.5,-43.5 			"/>
			<polyline class="st3" points="96.8,-53.5 98.2,-52.4 102.4,-49.3 			"/>
			<polyline class="st3" points="96.7,-50.2 98.3,-49.3 101.6,-47.3 			"/>
			<polyline class="st2" points="96.8,-58.2 98.4,-56.8 104.4,-51.5 			"/>
			<polyline class="st2" points="96.5,-47 98.2,-46 99.6,-45.2 			"/>
			<polyline class="st3" points="97.5,-26.3 101.7,-22 104.2,-19.5 			"/>
			<polyline class="st3" points="95.1,-25.2 98.3,-21.3 99.5,-19.9 			"/>
		</g>
		<g>
			<line class="st3" x1="60.9" y1="-74.5" x2="65.6" y2="-72.3"/>
			<line class="st3" x1="60.6" y1="-77.5" x2="63.9" y2="-75.3"/>
			<line class="st3" x1="34.1" y1="-50.8" x2="57.5" y2="-51.3"/>
			<line class="st3" x1="33.1" y1="-47.3" x2="59" y2="-47.5"/>
			<line class="st2" x1="28.7" y1="-58.7" x2="47.6" y2="-80.8"/>
			<line class="st2" x1="47.6" y1="-77.3" x2="47.5" y2="-55.3"/>
			<line class="st3" x1="32.6" y1="-84.5" x2="57.1" y2="-83.5"/>
			<line class="st3" x1="69.6" y1="-50.5" x2="61.1" y2="-55"/>
			<line class="st3" x1="34.2" y1="-54.5" x2="26.8" y2="-60.3"/>
			<line class="st3" x1="54.5" y1="-80.3" x2="54.4" y2="-55.7"/>
			<line class="st3" x1="57.5" y1="-80.3" x2="57.4" y2="-55.8"/>
			<line class="st3" x1="50.3" y1="-80.6" x2="50.7" y2="-55.5"/>
			<line class="st3" x1="44.6" y1="-74.3" x2="44.5" y2="-55.1"/>
			<line class="st3" x1="40.6" y1="-68.8" x2="39.5" y2="-54.8"/>
			<line class="st3" x1="36.9" y1="-65.8" x2="35.9" y2="-54.6"/>
			<line class="st3" x1="33.6" y1="-61.5" x2="32.9" y2="-57.5"/>
			<line class="st3" x1="33.9" y1="-87.3" x2="54.4" y2="-86.5"/>
			<line class="st3" x1="36.8" y1="-90.3" x2="51.1" y2="-89.8"/>
			<line class="st2" x1="30.4" y1="-44.3" x2="58.2" y2="-44.3"/>
			<line class="st2" x1="77.6" y1="-55.8" x2="68.2" y2="-47.8"/>
			<line class="st2" x1="76.1" y1="-37" x2="59.5" y2="-48.8"/>
			<line class="st2" x1="70.6" y1="-46.5" x2="77.3" y2="-52.7"/>
			<line class="st3" x1="70.1" y1="-44.5" x2="60.3" y2="-52.7"/>
			<line class="st2" x1="51.9" y1="-40.8" x2="68.6" y2="-23.3"/>
			<line class="st2" x1="56.1" y1="-41" x2="69.6" y2="-27.8"/>
			<line class="st2" x1="59.4" y1="-42" x2="67.6" y2="-33.5"/>
			<line class="st2" x1="58.7" y1="-46.2" x2="69.4" y2="-36.5"/>
			<line class="st3" x1="73.1" y1="-73.3" x2="78.9" y2="-59"/>
			<line class="st3" x1="85" y1="-76.4" x2="93.1" y2="-74"/>
			<line class="st3" x1="83" y1="-75.9" x2="90.9" y2="-71"/>
			<line class="st3" x1="80.5" y1="-75.2" x2="88.9" y2="-69"/>
			<line class="st3" x1="77.7" y1="-74.4" x2="88.1" y2="-65.7"/>
			<line class="st3" x1="77.6" y1="-72.5" x2="86.1" y2="-61.8"/>
			<line class="st3" x1="75.4" y1="-72.3" x2="85.4" y2="-56"/>
			<line class="st3" x1="28.1" y1="-26.5" x2="40.6" y2="-35.3"/>
			<line class="st3" x1="42.1" y1="-33" x2="29.9" y2="-24.3"/>
			<line class="st3" x1="43.9" y1="-31" x2="31.9" y2="-22"/>
			<line class="st3" x1="78.9" y1="-59" x2="81.1" y2="-53"/>
			<line class="st3" x1="80.2" y1="-52.9" x2="71.2" y2="-43.9"/>
			<line class="st3" x1="37.9" y1="-23.3" x2="47.6" y2="-22.8"/>
			<line class="st3" x1="80.4" y1="-45" x2="74.6" y2="-39.5"/>
			<line class="st3" x1="83.9" y1="-41.4" x2="81.1" y2="-36.3"/>
			<line class="st3" x1="86.1" y1="-38" x2="92.6" y2="-37.5"/>
			<line class="st3" x1="82.1" y1="-44" x2="77.9" y2="-36.5"/>
			<line class="st3" x1="61.1" y1="-71.5" x2="73.6" y2="-68.8"/>
			<line class="st3" x1="61.9" y1="-67.8" x2="74.9" y2="-64.8"/>
			<line class="st3" x1="60.8" y1="-64.2" x2="76.9" y2="-60.5"/>
			<line class="st3" x1="61.2" y1="-60.6" x2="76.1" y2="-57"/>
			<line class="st3" x1="61.1" y1="-57.9" x2="73.9" y2="-54.5"/>
			<line class="st3" x1="64.6" y1="-55" x2="71.7" y2="-52.5"/>
			<line class="st3" x1="39.4" y1="-25" x2="46.4" y2="-24.8"/>
			<line class="st3" x1="41.1" y1="-26.8" x2="44.7" y2="-26.6"/>
			<polyline class="st2" points="56.3,-93.5 58,-91.8 75.7,-74 			"/>
			<polyline class="st3" points="60.7,-93.6 62.6,-91.7 70.1,-84 			"/>
			<polyline class="st2" points="71.1,-93.5 71.3,-91.5 72,-80.5 			"/>
			<polyline class="st2" points="91.2,-93.5 91.7,-91.9 96.4,-75.8 			"/>
			<polyline class="st2" points="74.4,-93.5 74.5,-91.5 75.9,-76.8 			"/>
			<polyline class="st2" points="79,-93.5 79.2,-91.7 81.1,-77 			"/>
			<polyline class="st2" points="82.7,-93.5 82.9,-91.7 84.9,-78 			"/>
			<polyline class="st2" points="87.7,-93.5 88.1,-91.8 91.7,-76.7 			"/>
			<polyline class="st3" points="66.3,-93.6 68,-91.9 69.6,-90.4 			"/>
			<polyline class="st3" points="51.1,-93.6 52.6,-91.7 68.3,-72.1 			"/>
			<polyline class="st3" points="29.7,-94 32.2,-91.5 35.1,-88.7 			"/>
			<polyline class="st3" points="26.3,-93.3 27.5,-91.9 32.4,-86 			"/>
			<polyline class="st2" points="25,-90.6 26.2,-88.9 30,-83.6 			"/>
			<polyline class="st2" points="25,-87.4 26,-84.8 28.4,-79.1 			"/>
			<polyline class="st3" points="24.8,-70.7 26.1,-72.1 34.2,-81.4 			"/>
			<polyline class="st3" points="24.7,-61.9 26.2,-63.3 43.7,-80.9 			"/>
			<polyline class="st3" points="24.9,-75.5 26.2,-76.9 30.7,-81.5 			"/>
			<polyline class="st3" points="24.9,-67.2 26.2,-68.4 39,-81.2 			"/>
			<polyline class="st2" points="24.7,-38 26.2,-39 30.6,-41.8 			"/>
			<polyline class="st3" points="24.7,-34.7 26.3,-35.8 33.9,-40.5 			"/>
			<polyline class="st3" points="24.5,-28.8 26.2,-30 37.4,-37.5 			"/>
			<polyline class="st3" points="27.7,-27.5 26.2,-26.7 24.5,-25.7 			"/>
			<polyline class="st3" points="24.6,-41.3 26,-41.1 27.9,-40.8 			"/>
			<polyline class="st3" points="27.2,-44.5 26.2,-44.9 24.5,-45.4 			"/>
			<polyline class="st2" points="28.2,-42.7 26.1,-43.1 24.5,-43.5 			"/>
			<polyline class="st3" points="24.8,-53.5 26.2,-52.4 30.4,-49.3 			"/>
			<polyline class="st3" points="24.7,-50.2 26.3,-49.3 29.6,-47.3 			"/>
			<polyline class="st2" points="24.8,-58.2 26.4,-56.8 32.4,-51.5 			"/>
			<polyline class="st2" points="24.5,-47 26.2,-46 27.6,-45.2 			"/>
			<polyline class="st2" points="36.9,-41.1 56.3,-21.5 58,-19.8 			"/>
			<polyline class="st3" points="40.9,-41.8 60.7,-21.6 62.6,-19.7 			"/>
			<polyline class="st2" points="70.4,-32 71.1,-21.5 71.3,-19.5 			"/>
			<polyline class="st2" points="90.1,-25.3 91.2,-21.5 91.7,-19.9 			"/>
			<polyline class="st2" points="73.1,-35.8 74.4,-21.5 74.5,-19.5 			"/>
			<polyline class="st2" points="77.4,-34.5 79,-21.5 79.2,-19.7 			"/>
			<polyline class="st2" points="80.9,-33.8 82.7,-21.5 82.9,-19.7 			"/>
			<polyline class="st2" points="84.7,-34.2 87.7,-21.5 88.1,-19.8 			"/>
			<polyline class="st3" points="45.9,-41 66.3,-21.6 68,-19.9 			"/>
			<polyline class="st3" points="46.1,-27.8 51.1,-21.6 52.6,-19.7 			"/>
			<polyline class="st3" points="25.5,-26.3 29.7,-22 32.2,-19.5 			"/>
			<polyline class="st3" points="23.1,-25.2 26.3,-21.3 27.5,-19.9 			"/>
			<polyline class="st2" points="94.9,-93.5 97,-90.6 98.2,-88.9 			"/>
			<polyline class="st2" points="94.3,-93.9 95.2,-91.7 97,-87.4 98,-84.8 			"/>
			<polyline class="st3" points="86.1,-58.5 96.8,-70.7 98.1,-72.1 			"/>
			<polyline class="st3" points="87.4,-52.5 96.7,-61.9 98.2,-63.3 			"/>
			<polyline class="st3" points="88.7,-67 96.9,-75.5 98.2,-76.9 			"/>
			<polyline class="st3" points="72.1,-42.5 96.9,-67.2 98.2,-68.4 			"/>
			<polyline class="st2" points="88.6,-32.9 96.7,-38 98.2,-39 			"/>
			<polyline class="st3" points="87.6,-29 96.7,-34.7 98.3,-35.8 			"/>
			<polyline class="st3" points="92.4,-26 96.5,-28.8 98.2,-30 			"/>
			<polyline class="st3" points="98.2,-26.7 96.5,-25.7 94.4,-24.5 			"/>
			<polyline class="st3" points="83.4,-43.5 96.6,-41.3 98,-41.1 			"/>
			<polyline class="st3" points="98.2,-44.9 96.5,-45.4 83.4,-49.8 			"/>
			<polyline class="st2" points="98.1,-43.1 96.5,-43.5 81.6,-46.8 			"/>
			<polyline class="st3" points="93.9,-55.8 96.8,-53.5 98.2,-52.4 			"/>
			<polyline class="st3" points="90.9,-53.8 96.7,-50.2 98.3,-49.3 			"/>
			<polyline class="st2" points="94.7,-60 96.8,-58.2 98.4,-56.8 			"/>
			<polyline class="st2" points="88.9,-51.5 96.5,-47 98.2,-46 			"/>
			<line class="st3" x1="95.1" y1="-25.2" x2="98.3" y2="-21.3"/>
			<polyline class="st2" points="93.9,-23 94.3,-21.9 95.2,-19.7 			"/>
		</g>
		<g>
			<polyline class="st2" points="22.9,-93.5 25,-90.6 26.2,-88.9 			"/>
			<polyline class="st2" points="22.3,-93.9 23.2,-91.7 25,-87.4 26,-84.8 			"/>
			<polyline class="st3" points="14.1,-58.5 24.8,-70.7 26.1,-72.1 			"/>
			<polyline class="st3" points="15.4,-52.5 24.7,-61.9 26.2,-63.3 			"/>
			<polyline class="st3" points="16.7,-67 24.9,-75.5 26.2,-76.9 			"/>
			<polyline class="st3" points="0.1,-42.5 24.9,-67.2 26.2,-68.4 			"/>
			<polyline class="st2" points="16.6,-32.9 24.7,-38 26.2,-39 			"/>
			<polyline class="st3" points="15.6,-29 24.7,-34.7 26.3,-35.8 			"/>
			<polyline class="st3" points="20.4,-26 24.5,-28.8 26.2,-30 			"/>
			<polyline class="st3" points="26.2,-26.7 24.5,-25.7 22.4,-24.5 			"/>
			<polyline class="st3" points="11.4,-43.5 24.6,-41.3 26,-41.1 			"/>
			<polyline class="st3" points="26.2,-44.9 24.5,-45.4 11.4,-49.8 			"/>
			<polyline class="st2" points="26.1,-43.1 24.5,-43.5 9.6,-46.8 			"/>
			<polyline class="st3" points="21.9,-55.8 24.8,-53.5 26.2,-52.4 			"/>
			<polyline class="st3" points="18.9,-53.8 24.7,-50.2 26.3,-49.3 			"/>
			<polyline class="st2" points="22.7,-60 24.8,-58.2 26.4,-56.8 			"/>
			<polyline class="st2" points="16.9,-51.5 24.5,-47 26.2,-46 			"/>
			<line class="st3" x1="23.1" y1="-25.2" x2="26.3" y2="-21.3"/>
		</g>
		<g>
			<polyline class="st3" points="97.5,-98.3 101.7,-94 104.2,-91.5 			"/>
			<polyline class="st3" points="95.1,-97.2 98.3,-93.3 99.5,-91.9 			"/>
		</g>
		<g>
			<polyline class="st2" points="36.9,-113.1 56.3,-93.5 58,-91.8 			"/>
			<polyline class="st3" points="40.9,-113.8 60.7,-93.6 62.6,-91.7 			"/>
			<polyline class="st2" points="70.4,-104 71.1,-93.5 71.3,-91.5 			"/>
			<polyline class="st2" points="90.1,-97.3 91.2,-93.5 91.7,-91.9 			"/>
			<polyline class="st2" points="73.1,-107.8 74.4,-93.5 74.5,-91.5 			"/>
			<polyline class="st2" points="77.4,-106.5 79,-93.5 79.2,-91.7 			"/>
			<polyline class="st2" points="80.9,-105.8 82.7,-93.5 82.9,-91.7 			"/>
			<polyline class="st2" points="84.7,-106.2 87.7,-93.5 88.1,-91.8 			"/>
			<polyline class="st3" points="45.9,-113 66.3,-93.6 68,-91.9 			"/>
			<polyline class="st3" points="46.1,-99.8 51.1,-93.6 52.6,-91.7 			"/>
			<polyline class="st3" points="25.5,-98.3 29.7,-94 32.2,-91.5 			"/>
			<polyline class="st3" points="23.1,-97.2 26.3,-93.3 27.5,-91.9 			"/>
			<polyline class="st2" points="93.9,-95 94.3,-93.9 95.2,-91.7 			"/>
		</g>
	</g>
</pattern>
<pattern  x="-11" y="-88" width="72" height="72" patternUnits="userSpaceOnUse" id="Hatching_Double" viewBox="4.1 -78.2 72 72" style="overflow:visible;">
	<g>
		<rect x="4.1" y="-78.2" class="st0" width="72" height="72"/>
		<g>
			<line class="st3" x1="67.8" y1="-1.5" x2="71.3" y2="-7.6"/>
			<line class="st3" x1="69.6" y1="-8.6" x2="66.1" y2="-2.5"/>
			<line class="st3" x1="53.1" y1="-0.7" x2="50.8" y2="-7.3"/>
			<line class="st3" x1="48.9" y1="-6.6" x2="51.3" y2="-0.1"/>
			<line class="st3" x1="40.6" y1="-2.4" x2="42.3" y2="-9.2"/>
			<line class="st3" x1="40.4" y1="-9.7" x2="38.6" y2="-2.9"/>
			<line class="st3" x1="19" y1="-2.9" x2="20.9" y2="-9.7"/>
			<line class="st3" x1="19" y1="-10.2" x2="17.1" y2="-3.5"/>
			<line class="st3" x1="12.9" y1="-3.3" x2="10.9" y2="-10"/>
			<line class="st3" x1="9" y1="-9.4" x2="11" y2="-2.7"/>
			<line class="st3" x1="55.2" y1="-8.9" x2="59.6" y2="-3.5"/>
			<line class="st3" x1="61.1" y1="-4.8" x2="56.7" y2="-10.2"/>
		</g>
		<g>
			<line class="st3" x1="75.9" y1="-51.9" x2="82.4" y2="-54.5"/>
		</g>
		<g>
			<line class="st3" x1="3.9" y1="-51.9" x2="10.4" y2="-54.5"/>
			<line class="st3" x1="8.3" y1="-38.1" x2="5.8" y2="-31.6"/>
			<line class="st3" x1="7.6" y1="-30.8" x2="10.2" y2="-37.4"/>
			<line class="st3" x1="73.4" y1="-72.6" x2="79.5" y2="-69.3"/>
			<line class="st3" x1="80.5" y1="-71" x2="74.3" y2="-74.3"/>
			<line class="st3" x1="73.4" y1="-58.1" x2="78.7" y2="-62.7"/>
			<line class="st3" x1="77.4" y1="-64.2" x2="72.1" y2="-59.7"/>
			<line class="st3" x1="75.9" y1="-51.9" x2="82.4" y2="-54.5"/>
			<line class="st3" x1="81.7" y1="-56.3" x2="75.1" y2="-53.8"/>
			<line class="st3" x1="73.1" y1="-43.3" x2="79.9" y2="-41.8"/>
			<line class="st3" x1="80.3" y1="-43.7" x2="73.5" y2="-45.3"/>
			<line class="st3" x1="73.1" y1="-22" x2="79.9" y2="-20.2"/>
			<line class="st3" x1="80.4" y1="-22.2" x2="73.6" y2="-23.9"/>
			<line class="st3" x1="74.1" y1="-12" x2="80.8" y2="-14.2"/>
			<line class="st3" x1="80.2" y1="-16.1" x2="73.5" y2="-13.9"/>
			<line class="st3" x1="67.8" y1="-73.5" x2="71.3" y2="-79.6"/>
			<line class="st3" x1="69.6" y1="-80.6" x2="66.1" y2="-74.5"/>
			<line class="st3" x1="53.1" y1="-72.7" x2="50.8" y2="-79.3"/>
			<line class="st3" x1="48.9" y1="-78.6" x2="51.3" y2="-72.1"/>
			<line class="st3" x1="40.6" y1="-74.4" x2="42.3" y2="-81.2"/>
			<line class="st3" x1="40.4" y1="-81.7" x2="38.6" y2="-74.9"/>
			<line class="st3" x1="34.9" y1="-74.5" x2="28.5" y2="-77.3"/>
			<line class="st3" x1="27.7" y1="-75.4" x2="34.1" y2="-72.7"/>
			<line class="st3" x1="19" y1="-74.9" x2="20.9" y2="-81.7"/>
			<line class="st3" x1="19" y1="-82.2" x2="17.1" y2="-75.5"/>
			<line class="st3" x1="12.9" y1="-75.3" x2="10.9" y2="-82"/>
			<line class="st3" x1="9" y1="-81.4" x2="11" y2="-74.7"/>
			<line class="st3" x1="69.6" y1="-8.6" x2="66.1" y2="-2.5"/>
			<line class="st3" x1="67.8" y1="-1.5" x2="71.3" y2="-7.6"/>
			<line class="st3" x1="55.2" y1="-8.9" x2="59.6" y2="-3.5"/>
			<line class="st3" x1="61.1" y1="-4.8" x2="56.7" y2="-10.2"/>
			<line class="st3" x1="48.9" y1="-6.6" x2="51.3" y2="-0.1"/>
			<line class="st3" x1="53.1" y1="-0.7" x2="50.8" y2="-7.3"/>
			<line class="st3" x1="40.4" y1="-9.7" x2="38.6" y2="-2.9"/>
			<line class="st3" x1="40.6" y1="-2.4" x2="42.3" y2="-9.2"/>
			<line class="st3" x1="19" y1="-10.2" x2="17.1" y2="-3.5"/>
			<line class="st3" x1="19" y1="-2.9" x2="20.9" y2="-9.7"/>
			<line class="st3" x1="9" y1="-9.4" x2="11" y2="-2.7"/>
			<line class="st3" x1="12.9" y1="-3.3" x2="10.9" y2="-10"/>
			<line class="st3" x1="22.6" y1="-31.1" x2="19.1" y2="-25"/>
			<line class="st3" x1="20.8" y1="-24" x2="24.3" y2="-30.1"/>
			<line class="st3" x1="52.6" y1="-63.3" x2="48.2" y2="-68.7"/>
			<line class="st3" x1="46.7" y1="-67.4" x2="51.1" y2="-62"/>
			<line class="st3" x1="40.4" y1="-65.1" x2="42.8" y2="-58.6"/>
			<line class="st3" x1="44.6" y1="-59.2" x2="42.3" y2="-65.8"/>
			<line class="st3" x1="66.9" y1="-17" x2="60.5" y2="-19.8"/>
			<line class="st3" x1="59.7" y1="-17.9" x2="66.1" y2="-15.2"/>
			<line class="st3" x1="67.1" y1="-35" x2="65.2" y2="-28.3"/>
			<line class="st3" x1="67.1" y1="-27.7" x2="69" y2="-34.5"/>
			<line class="st3" x1="56.7" y1="-40.4" x2="58.7" y2="-33.7"/>
			<line class="st3" x1="60.6" y1="-34.2" x2="58.6" y2="-40.9"/>
			<line class="st3" x1="37.2" y1="-45.7" x2="40.6" y2="-51.7"/>
			<line class="st3" x1="38.9" y1="-52.7" x2="35.4" y2="-46.7"/>
			<line class="st3" x1="22.7" y1="-52.4" x2="27.1" y2="-47"/>
			<line class="st3" x1="28.6" y1="-48.3" x2="24.2" y2="-53.7"/>
			<line class="st3" x1="14.9" y1="-50.6" x2="17.3" y2="-44.1"/>
			<line class="st3" x1="19.1" y1="-44.7" x2="16.8" y2="-51.3"/>
			<line class="st3" x1="66.9" y1="-52.7" x2="65.1" y2="-45.9"/>
			<line class="st3" x1="67.1" y1="-45.4" x2="68.8" y2="-52.2"/>
			<line class="st3" x1="51" y1="-49" x2="57.5" y2="-46.3"/>
			<line class="st3" x1="58.3" y1="-48.1" x2="51.8" y2="-50.9"/>
			<line class="st3" x1="34.2" y1="-18.9" x2="36.2" y2="-12.2"/>
			<line class="st3" x1="38.1" y1="-12.7" x2="36.1" y2="-19.4"/>
			<line class="st3" x1="53.1" y1="-17.8" x2="46.2" y2="-16.8"/>
			<line class="st3" x1="46.5" y1="-14.8" x2="53.4" y2="-15.8"/>
			<line class="st3" x1="53.3" y1="-30" x2="51.7" y2="-23.2"/>
			<line class="st3" x1="53.6" y1="-22.7" x2="55.2" y2="-29.6"/>
			<line class="st3" x1="34.4" y1="-32.9" x2="30.6" y2="-27"/>
			<line class="st3" x1="32.3" y1="-25.9" x2="36.1" y2="-31.9"/>
			<line class="st3" x1="36" y1="-41.5" x2="29.6" y2="-38.7"/>
			<line class="st3" x1="30.4" y1="-36.9" x2="36.8" y2="-39.7"/>
			<line class="st3" x1="22.5" y1="-35.9" x2="24.4" y2="-42.7"/>
			<line class="st3" x1="22.5" y1="-43.2" x2="20.6" y2="-36.5"/>
			<line class="st3" x1="48.1" y1="-39.3" x2="46" y2="-46"/>
			<line class="st3" x1="44.1" y1="-45.4" x2="46.1" y2="-38.7"/>
			<line class="st3" x1="34.3" y1="-62.5" x2="28.8" y2="-58.3"/>
			<line class="st3" x1="30" y1="-56.7" x2="35.6" y2="-60.9"/>
			<line class="st3" x1="25.1" y1="-62.3" x2="23.1" y2="-69"/>
			<line class="st3" x1="21.2" y1="-68.5" x2="23.2" y2="-61.7"/>
			<line class="st3" x1="14.5" y1="-68.8" x2="14.1" y2="-61.8"/>
			<line class="st3" x1="16.1" y1="-61.7" x2="16.5" y2="-68.7"/>
			<line class="st3" x1="27.4" y1="-21" x2="23.1" y2="-15.4"/>
			<line class="st3" x1="24.7" y1="-14.2" x2="29" y2="-19.7"/>
			<line class="st3" x1="19.6" y1="-16.5" x2="14.8" y2="-21.6"/>
			<line class="st3" x1="13.3" y1="-20.2" x2="18.2" y2="-15.2"/>
			<line class="st3" x1="59.6" y1="-53.7" x2="64" y2="-59.2"/>
			<line class="st3" x1="62.5" y1="-60.4" x2="58.1" y2="-55"/>
			<line class="st3" x1="62.7" y1="-63.9" x2="63.5" y2="-70.9"/>
			<line class="st3" x1="61.5" y1="-71.1" x2="60.7" y2="-64.1"/>
			<line class="st3" x1="39.7" y1="-28.9" x2="46.1" y2="-26.2"/>
			<line class="st3" x1="46.9" y1="-28" x2="40.5" y2="-30.8"/>
			<line class="st3" x1="55.2" y1="-80.9" x2="59.6" y2="-75.5"/>
			<line class="st3" x1="61.1" y1="-76.8" x2="56.7" y2="-82.2"/>
		</g>
		<g>
			<line class="st3" x1="1.4" y1="-72.6" x2="7.5" y2="-69.3"/>
			<line class="st3" x1="8.5" y1="-71" x2="2.3" y2="-74.3"/>
			<line class="st3" x1="1.4" y1="-58.1" x2="6.7" y2="-62.7"/>
			<line class="st3" x1="5.4" y1="-64.2" x2="0.1" y2="-59.7"/>
			<line class="st3" x1="3.9" y1="-51.9" x2="10.4" y2="-54.5"/>
			<line class="st3" x1="9.7" y1="-56.3" x2="3.1" y2="-53.8"/>
			<line class="st3" x1="1.1" y1="-43.3" x2="7.9" y2="-41.8"/>
			<line class="st3" x1="8.3" y1="-43.7" x2="1.5" y2="-45.3"/>
			<line class="st3" x1="1.1" y1="-22" x2="7.9" y2="-20.2"/>
			<line class="st3" x1="8.4" y1="-22.2" x2="1.6" y2="-23.9"/>
			<line class="st3" x1="2.1" y1="-12" x2="8.8" y2="-14.2"/>
			<line class="st3" x1="8.2" y1="-16.1" x2="1.5" y2="-13.9"/>
		</g>
		<g>
			<line class="st3" x1="69.6" y1="-80.6" x2="66.1" y2="-74.5"/>
			<line class="st3" x1="67.8" y1="-73.5" x2="71.3" y2="-79.6"/>
			<line class="st3" x1="55.2" y1="-80.9" x2="59.6" y2="-75.5"/>
			<line class="st3" x1="61.1" y1="-76.8" x2="56.7" y2="-82.2"/>
			<line class="st3" x1="48.9" y1="-78.6" x2="51.3" y2="-72.1"/>
			<line class="st3" x1="53.1" y1="-72.7" x2="50.8" y2="-79.3"/>
			<line class="st3" x1="40.4" y1="-81.7" x2="38.6" y2="-74.9"/>
			<line class="st3" x1="40.6" y1="-74.4" x2="42.3" y2="-81.2"/>
			<line class="st3" x1="19" y1="-82.2" x2="17.1" y2="-75.5"/>
			<line class="st3" x1="19" y1="-74.9" x2="20.9" y2="-81.7"/>
			<line class="st3" x1="9" y1="-81.4" x2="11" y2="-74.7"/>
			<line class="st3" x1="12.9" y1="-75.3" x2="10.9" y2="-82"/>
		</g>
	</g>
</pattern>
<pattern  x="-11" y="-88" width="72" height="72" patternUnits="userSpaceOnUse" id="Mezzotint_Irregular" viewBox="51.7 -85.5 72 72" style="overflow:visible;">
	<g>
		<rect x="51.7" y="-85.5" class="st0" width="72" height="72"/>
		<g>
			<path class="st3" d="M119.9-10c2.3-0.5,7,0,6,1.8s4,7,4.5,5.5s-2-4.5,0.8-4.8s5.8,3,7.5,3.3s5.5-1.5,3.3-3s-2.8-4.5-5.5-4.3
				s-7-0.3-6-3"/>
			<path class="st3" d="M120.9-12.5c1.8,0.5,5.5,0.3,6,1.8s2.7,2.8,2.7,1.5s-1.7-2.8-1.7-2.8s-4-3.5-2-4"/>
			<path class="st3" d="M122.7-5.2c1.5,1.5,3.5,2.7,5.5,3.8c2,1,5,2,5.3,0.8c0.3-1.3-2.8-3.3-1-3.3s3.3,2,6.5,1.8s9.3-4,7.3-4.8
				s-3.8-3.5-5.5-4.5s-2.8-1-4-1s-4-1.3-2-2"/>
		</g>
		<g>
			<path class="st3" d="M47.9-10c2.3-0.5,7,0,6,1.8s4,7,4.5,5.5s-2-4.5,0.8-4.8s5.8,3,7.5,3.3s5.5-1.5,3.3-3s-2.8-4.5-5.5-4.3
				s-7-0.3-6-3"/>
			<path class="st3" d="M75.4-14.5c1.3,0.5,4.3,3,3.3,4.8s-0.5,3.3,1,3.5s6.3-2,5.8-3.3s-1.8-3.3,0-4.5"/>
			<path class="st3" d="M97.4-16.7c1.8,1,1.8,2,0.5,3.3s-6.5,1.3-5.8,2.5s5,4,7.8,4s3-3.5,4.8-4"/>
			<path class="st3" d="M105.7-12.2c0.8-0.5,0.8-1,0.5-3"/>
			<path class="st3" d="M107.9-19.2c0,1.5-0.4,5.6-0.4,6.9c0,1.4,0.5,1.9,0.5,1.9"/>
			<path class="st3" d="M48.9-12.5c1.8,0.5,5.5,0.3,6,1.8s2.8,2.8,2.8,1.5S55.9-12,55.9-12s-4-3.5-2-4"/>
			<path class="st3" d="M77.7-15.2c1.8,0.5,3.8,1,3.5,2.8s0.3,4,0.8,2.8s0-4,1.5-5"/>
			<path class="st3" d="M100.4-20c1.3,2.3,1.5,6.3-0.3,7.5s-3,3-1.5,2.8s4-0.8,4.8-3s2.3-8.8,0.8-9.5"/>
			<path class="st3" d="M109.7-20c-1,1.5-1,4.5,0.3,5.8s2.5,0.8,2.8,2.3s1.5,3.3,2.5,3.3s2.5-2,3.3-2.8c1-1,2.5-1,2.5-1
				c1.8,0.5,5.5,0.3,6,1.8"/>
			<path class="st3" d="M50.7-5.2c1.5,1.5,3.5,2.7,5.5,3.8c2,1,5,2,5.3,0.8C61.7-2,58.7-4,60.4-4s3.3,2,6.5,1.8s9.3-4,7.3-4.8
				s-3.8-3.5-5.5-4.5s-2.8-1-4-1s-4-1.3-2-2"/>
			<path class="st3" d="M73.9-14c1,2,2.3,3.3,2.5,5s-0.5,4.8,2,4.8c0.6,0,1.3,0,2-0.2"/>
			<path class="st3" d="M82.5-4.9c1.4-0.5,2.7-1.2,3.7-2.3c2-2.3,0.3-2.8,0.5-4s6-4,7-3.3s-1.3,0-2.3,1.8s-4.3,6.3,1,6.5
				S98.7-5,98.9-4s5,0.8,5-0.5s1.5-6,2-4.8s2,3.5,5,5"/>
			<path class="st3" d="M112.9-14.7c1.3,1.3,1.5,3.8,2.8,3s2.8-2.3,3.5-2.8"/>
		</g>
		<g>
			<path class="st3" d="M37.7-20c-1,1.5-1,4.5,0.3,5.8s2.5,0.8,2.8,2.3s1.5,3.3,2.5,3.3s2.5-2,3.3-2.8c1-1,2.5-1,2.5-1
				c1.8,0.5,5.5,0.3,6,1.8"/>
		</g>
		<g>
			<path class="st3" d="M118.4-16.7c3.9-2.4,6-7,10.5-8.5c-0.2,1.1-0.1,2.3,0.6,2.8c1.2,0.9,2.4,0.6,3.9,0.2c1-3.2,3.1-7.3,7-6.4
				c1.4,0.3,1.3,2,2.1,2.8c0.9,0.8,2.2,1.7,3.3,1c1.2-0.8,2.4-1.2,3.6-1.8c0.7-0.3,0.2-1.3,1-1.6c1.9-0.6,2.2,1.4,3.5,2
				c-0.1,1.9,0,3.7,0.5,5.5c0.7,2.3,3.4,1.6,5,0.5c-0.3-0.3,0.6-1.8,0.5-3.4c0.5-3.7-1.7-6.9,2.1-8.4c3.7-1.4,7.9-0.4,11.9-1
				c1.2-0.2,2.4-0.4,3.4-1c1.4-0.8,2.6-1.9,4.1-2.3c0.2,0.8,1.4,0.2,1.5,1c0.2,2.2,1.7,3.7,2.8,5.4c0.2,0.3,0.5,1.1,1.2,1.4
				c0.9,0.4,0.7,2.1,1.1,3.3"/>
			<path class="st3" d="M121.1-23.1c1.5-0.7,3.1-1.2,4.5-2.3c0.1-0.9,0.8-1.4,1-2.2c0-0.2,0.4-0.3,0.4-0.3c0.7-1.6,2.3-2.4,3.8-1.7
				c0.4,0.2,0.2,0.9,0.8,0.7c0,0.3,0.1,0.6,0,0.7c-1.3,0.9-1.3,2.4-1.1,3.5c0.2,0.8,1.1,1.6,2.1,0.8c-0.2-2.8,1.1-5.3,3.3-6.9
				c1.2-0.9,2.7-0.7,4.2-0.6c-0.1,0.6,0.4,0.1,0.5,0.3"/>
			<path class="st3" d="M121.4-26.7c1.8-0.3,3.8-2.5,5.3-4c1.5-1.5,3-2.5,4.5-2.2s1,3.2,3.3,0.3s3.8-2,5.3-1.8s5,2,6.3,0.5
				s-2-6,0.3-6.3s3.3,3.3,5.3,4.5s3,2.8,4.3,0.8s3.3-3.8,5.5-3s3,0.8,5,0.8"/>
			<path class="st3" d="M140.9-43.6c-1,0.1-1.9,0.1-2.8,0.1c-3.5,0-4,2.5-1.5,3s4.5,2.5,6.5,4s-1.5,1-3.5,0s-3,0-5.5,2s-1.5-0.5-3-1
				s-3,0.5-4.5,2c-1.5,1.5-3.5,0.5-7.5-0.5"/>
			<path class="st3" d="M120.4-37.2c1.5,0.8,3.3,2.3,5.3,1.3s3.2-2.5,4.5-2s2.5,2.3,4,1.3s3.3-0.8,1.5-2.5s-5.3-3-4-4
				s3.8-3.3,6.5-3.3s15-2.3,14.5,0.3s-1.8,8.3,0,7.3s3.3-2.8,4.8-2.8s2.8-0.3,3.3-2.8s3-3.8,4-2.8s2.5,2.3,2.3,0.5s0.5-4.5,4-4.3
				c0.5,0,1.1,0.1,1.7,0.1"/>
			<path class="st3" d="M120.9-16.2c1-1.3,2.8-3,4.5-4.8s2.7-1.3,3,0.3s0.8,2.5,2.3,2.3s5.5-3,6-5.3s1.8-3.8,3-2.8s2,4,4.3,4
				s7.5-4.8,7.8-3s-0.5,4,0.3,6.5s2.5,2.5,5,1.5s4.5-2,4.8-3.5"/>
			<path class="st3" d="M119.9-82c2.3-0.5,7,0,6,1.8s4,7,4.5,5.5s-2-4.5,0.8-4.8s5.8,3,7.5,3.3s5.5-1.5,3.3-3s-2.8-4.5-5.5-4.3
				s-7-0.3-6-3"/>
			<path class="st3" d="M122.2-40.7c1.8,1,2,2,4,1.3c2-0.8,2.5-1,2.5-1c2,1,3.5,1.5,3.3,0.5c-0.9-3.4-5.8-3-5-4.3
				c1.2-2,5.2-2.3,6.7-4.3s-0.5-3.8,1.8-4.8s5.5,1,6.3,2.3s4.5,2.3,7.5,1.5s7.3-2,6.8,0.5s-1.3,5.8,0.3,4.5s5.3-8.5,7.5-8.3
				s3.3,0,6.3-0.3s9.5,0.5,9.3-2s-4.8-8.3-1-8.3c1.7,0,3.6,0.6,5.2,1.5"/>
			<path class="st3" d="M120.9-84.5c1.8,0.5,5.5,0.3,6,1.8s2.7,2.8,2.7,1.5s-1.7-2.8-1.7-2.8s-4-3.5-2-4"/>
			<path class="st3" d="M121.2-49.5c1.3,0.5,3.3,2.3,4,1.3s-8-3-0.5-4.8c7.5-1.8,6.2-1,7.2-3.5s-6.5-3.3-4.5-4.5
				c2-1.3,9.3-3,11.7-1.8c3,1.5,1.5,3.8,1.8,4.5s-1,4.8,2.5,6s5,2.5,8,0.8s7-3.3,7-2s-0.3,2,2.5,0.3s7.3-3.3,9.8-3s5-0.5,4-2.3
				s-3.8-2.8-5-4.8s0.8-3.3,3.3-3.5s12,0.8,13.8,2.3s2.3,5.5,2.3,8s-1,3.3,1.8,5.3"/>
			<path class="st3" d="M121.4-55.5c2.3,0.5,4.3,0,5.3-0.5s-2.5-3-4.8-3.8"/>
			<path class="st3" d="M121.9-64.7c3.8-0.5,7.2-1.5,9.7-1s7.8-0.5,9.8,3"/>
			<path class="st3" d="M122.2-68.7c3.5,0.5,10.7,2,12.5,2c0.6,0,1.8,0,3.2,0.1"/>
			<path class="st3" d="M122.7-77.2c1.5,1.5,3.5,2.8,5.5,3.8c2,1,5,2,5.3,0.8s-2.8-3.3-1-3.3s3.3,2,6.5,1.8s9.3-4,7.3-4.8
				s-3.8-3.5-5.5-4.5s-2.8-1-4-1s-4-1.3-2-2"/>
			<path class="st3" d="M122.2-71.2c1.8,0.5,10.2,2.8,14.2,2.5s10.8-0.5,11.8,0.3s0.3,2,0.5,3.3s1,2.3,2.3,1s3.8-2,5-1.5
				s3.5,1.3,3.3,0s-2.8-3.3-1.5-5.5s7-6.5,6.5-4.3s-1.3,5.3,0.5,4.5s5-2,8-1.5"/>
			<path class="st3" d="M122.4-74c3,1.5,9.5,4,16,3.8s6.3-1.8,4.8-1.8s0.3-2.5,2.3-2.5s4.5,1.5,4.8,3.3s1,3,2.3,2.8s1-1,2.8-4
				s2.5-3,4-4.8s1.5,0,2.3,0.3s6.3-0.8,6.3,0.5s-3.8,3-2,3s9.8-1.5,11.5-0.8"/>
		</g>
		<g>
			<path class="st3" d="M46.4-16.7c3.9-2.4,6-7,10.5-8.5c-0.2,1.1-0.1,2.3,0.6,2.8c1.2,0.9,2.4,0.6,3.9,0.2c1-3.2,3.1-7.3,7-6.4
				c1.4,0.3,1.3,2,2.1,2.8c0.9,0.8,2.2,1.7,3.3,1c1.2-0.8,2.4-1.2,3.6-1.8c0.7-0.3,0.2-1.3,1-1.6c1.9-0.6,2.2,1.4,3.5,2
				c-0.1,1.9,0,3.7,0.5,5.5c0.7,2.3,3.4,1.6,5,0.5c-0.3-0.3,0.6-1.8,0.5-3.4c0.5-3.7-1.7-6.9,2.1-8.4c3.7-1.4,7.9-0.4,11.9-1
				c1.2-0.2,2.4-0.4,3.4-1c1.4-0.8,2.6-1.9,4.1-2.3c0.2,0.8,1.4,0.2,1.5,1c0.2,2.2,1.7,3.7,2.8,5.4c0.2,0.3,0.5,1.1,1.2,1.4
				c0.9,0.4,0.7,2.1,1.1,3.3"/>
			<path class="st3" d="M128.9-25.2c-4.5,1.5-6.6,6.1-10.5,8.5c-1.5,1-2.6,1.1-3.9,0.8c-1.2-0.3-0.4-2.1-0.5-3.3
				c-0.2-1.5,1.6-0.9,2.2-1.9c0.6-1,0.8-1.5,0.6-2.7"/>
			<path class="st3" d="M49.1-23.1c1.5-0.7,3.1-1.2,4.5-2.3c0.1-0.9,0.8-1.4,1-2.2c0-0.2,0.4-0.3,0.4-0.3c0.7-1.6,2.3-2.4,3.8-1.7
				c0.4,0.2,0.2,0.9,0.8,0.7c0,0.3,0.1,0.6,0,0.7c-1.3,0.9-1.3,2.4-1.1,3.5c0.2,0.8,1.1,1.6,2.1,0.8c-0.2-2.8,1.1-5.3,3.3-6.9
				c1.2-0.9,2.7-0.7,4.2-0.6c-0.1,0.6,0.4,0.1,0.5,0.3"/>
			<path class="st3" d="M121.1-23.1c1.5-0.7,3.1-1.2,4.5-2.3"/>
			<path class="st3" d="M120.1-21.6c-0.8,0.5-1.1,1.4-1.6,2.2c-0.1,0.2-0.5,0.2-0.4,0.6c-0.5-0.1-1,0.4-1.5,0.2
				c-0.3-0.1-0.4-0.5-0.2-0.7c0.4-0.3,0.3-0.9,0.5-0.9c0.7-0.2,0.3-1.1,1-1.1c0.4-1.5,0.5-3,0.1-4.5c-0.5-1.9-1.6-3.5-2.4-5.3"/>
			<path class="st3" d="M114.7-32.5c-1.8-2.3-3-3.5-3.3-4.8s-0.5-2.3-1.8-2.3s-2.3,1.5-4.3,2.5s-9.3,2.3-11.3,2s-6-1-7-0.3
				S85.4-31,85.4-29s0.3,4.8,0,5.8s-1.8,2.8-2-0.5s-0.5-4.8-2.3-6.5s-4.8-2.7-5-1.5c-0.3,1.3,0.8,2.3,0.3,2.8s-2.3,1.3-3.3,1
				s-1.5-1-2.3-1.5"/>
			<path class="st3" d="M49.4-26.7c1.8-0.3,3.8-2.5,5.3-4c1.5-1.5,3-2.5,4.5-2.2s1,3.2,3.3,0.3s3.8-2,5.3-1.8s5,2,6.3,0.5
				s-2-6,0.3-6.3s3.3,3.3,5.3,4.5s3,2.8,4.3,0.8s3.3-3.8,5.5-3s3,0.8,5,0.8"/>
			<path class="st3" d="M97.4-37.5c1.5-0.3,6.3-1,7.5-2.3s-1.8-5-0.3-5.5s5.5,0.3,7,1.5s2.8,5,3.3,7.3s3.8,4.7,4.3,6.5s0,4.5,0.5,5
				s1-1.5,1.8-1.8c1.7-0.6,3.8-2.5,5.3-4"/>
			<path class="st3" d="M126.7-33.5c-1.5,1.5-3.5,0.5-7.5-0.5c0,0-2.3-1-2.5-6.5s-3.8-6.8-6.3-7.5s-12.8-2-13.5-0.5s3.8,3.5,4.5,5
				s-0.3,3.8-2,3.5s-1.8-2.8-3.3-3.5s-5.5-1-5.8,1.3S86.2-40,86.2-40c-2.5-0.5-3,4-5,4s-2.5-4.5-4.5-6.5c-1-1-2.8-1.3-4.7-1.3"/>
			<path class="st3" d="M68.9-43.6c-1,0.1-1.9,0.1-2.8,0.1c-3.5,0-4,2.5-1.5,3s4.5,2.5,6.5,4s-1.5,1-3.5,0s-3,0-5.5,2s-1.5-0.5-3-1
				s-3,0.5-4.5,2C53.2-32,51.2-33,47.2-34"/>
			<path class="st3" d="M48.4-37.2c1.5,0.8,3.3,2.3,5.3,1.3s3.3-2.5,4.5-2s2.5,2.3,4,1.3s3.3-0.8,1.5-2.5s-5.3-3-4-4
				s3.8-3.3,6.5-3.3s15-2.3,14.5,0.3s-1.8,8.3,0,7.3s3.3-2.8,4.8-2.8s2.8-0.3,3.3-2.8s3-3.8,4-2.8s2.5,2.3,2.3,0.5s0.5-4.5,4-4.3
				c0.5,0,1.1,0.1,1.7,0.1"/>
			<path class="st3" d="M102.7-50.7c4.2,0.4,9.7,1.2,11.8,2.4c2.8,1.8,4.5,6,4.8,8.5"/>
			<path class="st3" d="M120.4-37.2c1.5,0.8,3.3,2.3,5.3,1.3"/>
			<path class="st3" d="M64.4-11.5c-2.8,0.3-7-0.3-6-3s7.5-4.5,8.3-6s2.8-1.8,3.8,0.3s3.8,5.3,5,5.8s4.3,3,3.3,4.8"/>
			<path class="st3" d="M85.4-9.5c-0.5-1.3-1.8-3.3,0-4.5s10.3-3.8,12-2.8s1.8,2,0.5,3.3s-6.5,1.3-5.8,2.5"/>
			<path class="st3" d="M48.9-16.2c1-1.3,2.8-3,4.5-4.8s2.8-1.3,3,0.3s0.8,2.5,2.3,2.3s5.5-3,6-5.3s1.8-3.8,3-2.8s2,4,4.3,4
				s7.5-4.8,7.8-3s-0.5,4,0.3,6.5s2.5,2.5,5,1.5s4.5-2,4.8-3.5"/>
			<path class="st3" d="M120.9-16.2c1-1.3,2.8-3,4.5-4.8"/>
			<path class="st3" d="M55.9-12c0,0-4-3.5-2-4s4,0,6-1.3s5.3-3.3,6-4.8s1.8-2.5,2.5-1.5s2,2,3.8,2.5s3-1,3.8,0.8s0,4.5,1.8,5
				s3.8,1,3.5,2.8"/>
			<path class="st3" d="M81.9-9.7c0.5-1.3,0-4,1.5-5s6.3-2.8,7-4c0.7-1.2,3.9-1.9,6-2"/>
			<path class="st3" d="M98.2-20.7c0.2,0.2,1.9,0.2,2.3,0.8c1.3,2.3,1.5,6.3-0.3,7.5"/>
			<path class="st3" d="M103.4-12.7c0.8-2.3,2.3-8.8,0.8-9.5s-4.8-1.5-2.8-3.5s5.8-3.8,6.8-3.3s4.5,3.5,3.8,5.3s-1.3,2.3-2.3,3.8
				s-1,4.5,0.3,5.8s2.5,0.8,2.8,2.3"/>
			<path class="st3" d="M89.9-22.7c0-1.3-0.5-2.5,0.3-4.5s2.8-3,3-1.5s-1.5,4.8,0,5s2.5,0.5,3.3-1s-1.3-3.3,0-4.3s6.3-2.8,7.8-2.3
				s2.8-0.3,3.8-0.5"/>
			<path class="st3" d="M109.7-31.7c1-0.3,2.3,1.5,2.5,3s2.3,2.8,2.5,3.8s-2.3,5-2.8,6.3s-0.3,2.8,1,4s1.5,3.8,2.8,3
				s2.8-2.3,3.5-2.8"/>
			<path class="st3" d="M105.7-12.2c0.8-0.5,0.8-1,0.5-3s0.8-6.8,0-7.8s-1.5-3,0-2.5c0.8,0.3,2.5-0.1,2.8,1.4c0.2,1.2-1,4.2-1,4.9
				c0,1.5-0.4,5.6-0.4,6.9"/>
			<path class="st3" d="M47.9-82c2.3-0.5,7,0,6,1.8s4,7,4.5,5.5s-2-4.5,0.8-4.8s5.8,3,7.5,3.3s5.5-1.5,3.3-3s-2.8-4.5-5.5-4.3
				s-7-0.3-6-3"/>
			<path class="st3" d="M75.4-86.5c1.3,0.5,4.3,3,3.3,4.8s-0.5,3.3,1,3.5s6.3-2,5.8-3.3s-1.8-3.3,0-4.5"/>
			<path class="st3" d="M97.4-88.7c1.8,1,1.8,2,0.5,3.3s-6.5,1.3-5.8,2.5s5,4,7.8,4s3-3.5,4.8-4"/>
			<path class="st3" d="M105.7-84.2c0.8-0.5,0.8-1,0.5-3"/>
			<path class="st3" d="M107.9-91.2c0,1.5-0.4,5.6-0.4,6.9c0,1.4,0.5,1.9,0.5,1.9"/>
			<path class="st3" d="M50.2-40.7c1.8,1,2,2,4,1.3s2.5-1,2.5-1c2,1,3.5,1.5,3.3,0.5c-0.9-3.4-5.8-3-5-4.3c1.3-2,5.3-2.3,6.8-4.3
				s-0.5-3.8,1.8-4.8s5.5,1,6.3,2.3s4.5,2.3,7.5,1.5s7.3-2,6.8,0.5s-1.3,5.8,0.3,4.5s5.3-8.5,7.5-8.3s3.3,0,6.3-0.3s9.5,0.5,9.3-2
				s-4.8-8.3-1-8.3c1.7,0,3.6,0.6,5.2,1.5"/>
			<path class="st3" d="M114.1-59.4c0.6,0.8,1,1.6,1.1,2.5c0.5,3.5,0.3,5.8,2.3,7"/>
			<path class="st3" d="M122.2-40.7c1.8,1,2,2,4,1.3"/>
			<path class="st3" d="M118.7-49.2c1,1,2,3,2,4s-0.5,2.3,0.3,3.3"/>
			<path class="st3" d="M48.9-84.5c1.8,0.5,5.5,0.3,6,1.8s2.8,2.8,2.8,1.5S55.9-84,55.9-84s-4-3.5-2-4"/>
			<path class="st3" d="M77.7-87.2c1.8,0.5,3.8,1,3.5,2.8s0.3,4,0.8,2.8s0-4,1.5-5"/>
			<path class="st3" d="M100.4-92c1.3,2.3,1.5,6.3-0.3,7.5s-3,3-1.5,2.8s4-0.8,4.8-3s2.3-8.8,0.8-9.5"/>
			<path class="st3" d="M109.7-92c-1,1.5-1,4.5,0.3,5.8s2.5,0.8,2.8,2.3s1.5,3.3,2.5,3.3s2.5-2,3.3-2.8c1-1,2.5-1,2.5-1
				c1.8,0.5,5.5,0.3,6,1.8"/>
			<path class="st3" d="M49.2-49.5c1.3,0.5,3.3,2.3,4,1.3s-8-3-0.5-4.8s6.3-1,7.3-3.5s-6.5-3.3-4.5-4.5s9.3-3,11.8-1.8
				c3,1.5,1.5,3.8,1.8,4.5s-1,4.8,2.5,6s5,2.5,8,0.8s7-3.3,7-2s-0.3,2,2.5,0.3s7.3-3.3,9.8-3s5-0.5,4-2.3s-3.8-2.8-5-4.8
				s0.8-3.3,3.3-3.5s12,0.8,13.8,2.3s2.3,5.5,2.3,8s-1,3.3,1.8,5.3"/>
			<path class="st3" d="M121.2-49.5c1.3,0.5,3.3,2.3,4,1.3s-8-3-0.5-4.8"/>
			<path class="st3" d="M49.4-55.5c2.3,0.5,4.3,0,5.3-0.5s-2.5-3-4.8-3.8"/>
			<path class="st3" d="M49.9-64.7c3.8-0.5,7.3-1.5,9.8-1s7.8-0.5,9.8,3"/>
			<path class="st3" d="M121.4-55.5c2.3,0.5,4.3,0,5.3-0.5s-2.5-3-4.8-3.8s-3.8-4.5,0-5s7.2-1.5,9.7-1"/>
			<path class="st3" d="M120.2-55.7c-1.3-0.8-2-2.3-2-4s-2-7.5-5-7.8s-20.3-2-20.8,0.3s3.3,4.5,4,5.5s0.5,3.3-0.8,3.5s-4,1-3.8-0.5
				s-1-3.3-2.5-1.5c-0.8,0.9-2.7,1.5-3.8,2.3"/>
			<path class="st3" d="M83.9-56.7c-1.8,1.8-4.8,3-6.8,3s-6.3-0.5-6-2.8s0.3-3.3-0.3-4.3"/>
			<path class="st3" d="M50.2-68.7c3.5,0.5,10.8,2,12.5,2c0.6,0,1.8,0,3.2,0.1"/>
			<path class="st3" d="M69.9-66.4c2,0.2,3.7,0.7,4.3,1.4c1.3,1.8-0.3,4.8-0.8,6.3s-1,2.8,0.5,2.8s6.8,0.3,6-1.3s-3.3-2.3-2.5-3.8
				s7-2.5,8.3-2.3s3.8,1.3,4.8,0.3s-0.8-1.5-0.3-3.5"/>
			<path class="st3" d="M122.2-68.7c3.5,0.5,10.7,2,12.5,2"/>
			<path class="st3" d="M91.2-68c2-1,3.3-2.3,7.8-2s17.5,1.3,18,2.3s2,1.8,2.5,0.5s1.3-1.5,1.3-1.5"/>
			<path class="st3" d="M50.7-77.2c1.5,1.5,3.5,2.8,5.5,3.8s5,2,5.3,0.8s-2.8-3.3-1-3.3s3.3,2,6.5,1.8s9.3-4,7.3-4.8
				s-3.8-3.5-5.5-4.5s-2.8-1-4-1s-4-1.3-2-2"/>
			<path class="st3" d="M73.9-86c1,2,2.3,3.3,2.5,5s-0.5,4.8,2,4.8c0.6,0,1.3,0,2-0.2"/>
			<path class="st3" d="M82.5-76.9c1.4-0.5,2.7-1.2,3.7-2.3c2-2.3,0.3-2.8,0.5-4s6-4,7-3.3s-1.3,0-2.3,1.8s-4.3,6.3,1,6.5
				s6.3,1.3,6.5,2.3s5,0.8,5-0.5s1.5-6,2-4.8s2,3.5,5,5"/>
			<path class="st3" d="M122.7-77.2c1.5,1.5,3.5,2.8,5.5,3.8"/>
			<path class="st3" d="M119.9-82c2.3-0.5,7,0,6,1.8"/>
			<path class="st3" d="M109.7-81.5c0.8,1,3.3,2.3,4,3.3s2.3,2.5,3,0.8s-0.3-3.5,1.5-4"/>
			<path class="st3" d="M121.9-78c-1.5-1.5-3.3-2.3-3.3-1.3s2.8,1.8,1.8,3.3s-5,2.5-6.5,1.8s-1.8-1.3-1.8-1.3"/>
			<path class="st3" d="M50.2-71.2c1.8,0.5,10.3,2.8,14.3,2.5s10.8-0.5,11.8,0.3s0.3,2,0.5,3.3s1,2.3,2.3,1s3.8-2,5-1.5
				s3.5,1.3,3.3,0s-2.8-3.3-1.5-5.5s7-6.5,6.5-4.3s-1.3,5.3,0.5,4.5s5-2,8-1.5"/>
			<path class="st3" d="M122.2-71.2c1.8,0.5,10.2,2.8,14.2,2.5"/>
			<path class="st3" d="M120.4-71.5c-1.5-0.5-3.6-0.2-3.3,1c0.8,2.5-3.3-0.3-6-0.8s-6-0.8-7-0.8"/>
			<path class="st3" d="M50.4-74c3,1.5,9.5,4,16,3.8s6.3-1.8,4.8-1.8s0.3-2.5,2.3-2.5s4.5,1.5,4.8,3.3s1,3,2.3,2.8s1-1,2.8-4
				s2.5-3,4-4.8s1.5,0,2.3,0.3s6.3-0.8,6.3,0.5s-3.8,3-2,3s9.8-1.5,11.5-0.8"/>
			<path class="st3" d="M122.4-74c3,1.5,9.5,4,16,3.8"/>
			<path class="st3" d="M121.9-74.2c-2-0.9-4.3,2.3-7,1.8s-4.8-1-6.3-1.3s-2.3-0.3-2.3-0.3"/>
			<path class="st3" d="M64.7-12.5c-1.3,0-4-1.3-2-2c2.8-2,9.5-2.3,11.3,0.5c1,2,2.3,3.3,2.5,5"/>
			<path class="st3" d="M86.7-11.2c0.3-1.3,6-4,7-3.3s-1.3,0-2.3,1.8"/>
			<path class="st3" d="M112.9-86.7c1.3,1.3,1.5,3.8,2.8,3s2.8-2.3,3.5-2.8"/>
		</g>
		<g>
			<path class="st3" d="M56.9-25.2c-4.5,1.5-6.6,6.1-10.5,8.5c-1.5,1-2.6,1.1-3.9,0.8c-1.2-0.3-0.4-2.1-0.5-3.3
				c-0.2-1.5,1.6-0.9,2.2-1.9c0.6-1,0.8-1.5,0.6-2.7"/>
			<path class="st3" d="M49.1-23.1c1.5-0.7,3.1-1.2,4.5-2.3"/>
			<path class="st3" d="M25.4-37.5c1.5-0.3,6.3-1,7.5-2.3s-1.8-5-0.3-5.5s5.5,0.3,7,1.5s2.8,5,3.3,7.3s3.8,4.7,4.3,6.5s0,4.5,0.5,5
				s1-1.5,1.8-1.8c1.7-0.6,3.8-2.5,5.3-4"/>
			<path class="st3" d="M54.7-33.5C53.2-32,51.2-33,47.2-34c0,0-2.3-1-2.5-6.5s-3.8-6.8-6.3-7.5s-12.8-2-13.5-0.5s3.8,3.5,4.5,5
				s-0.3,3.8-2,3.5s-1.8-2.8-3.3-3.5s-5.5-1-5.8,1.3S14.2-40,14.2-40c-2.5-0.5-3,4-5,4c-2,0-2.5-4.5-4.5-6.5c-1-1-2.8-1.3-4.7-1.3"
				/>
			<path class="st3" d="M48.4-37.2c1.5,0.8,3.3,2.3,5.3,1.3"/>
			<path class="st3" d="M48.9-16.2c1-1.3,2.8-3,4.5-4.8"/>
			<path class="st3" d="M50.2-40.7c1.8,1,2,2,4,1.3"/>
			<path class="st3" d="M37.7-92c-1,1.5-1,4.5,0.3,5.8s2.5,0.8,2.8,2.3s1.5,3.3,2.5,3.3s2.5-2,3.3-2.8c1-1,2.5-1,2.5-1
				c1.8,0.5,5.5,0.3,6,1.8"/>
			<path class="st3" d="M49.2-49.5c1.3,0.5,3.3,2.3,4,1.3s-8-3-0.5-4.8"/>
			<path class="st3" d="M49.4-55.5c2.3,0.5,4.3,0,5.3-0.5s-2.5-3-4.8-3.8s-3.8-4.5,0-5s7.3-1.5,9.8-1"/>
			<path class="st3" d="M50.2-68.7c3.5,0.5,10.8,2,12.5,2"/>
			<path class="st3" d="M50.7-77.2c1.5,1.5,3.5,2.8,5.5,3.8"/>
			<path class="st3" d="M47.9-82c2.3-0.5,7,0,6,1.8"/>
			<path class="st3" d="M50.2-71.2c1.8,0.5,10.3,2.8,14.3,2.5"/>
			<path class="st3" d="M50.4-74c3,1.5,9.5,4,16,3.8"/>
		</g>
		<g>
			<path class="st3" d="M64.4-83.5c-2.8,0.3-7-0.3-6-3s7.5-4.5,8.3-6s2.8-1.8,3.8,0.3s3.8,5.3,5,5.8s4.3,3,3.3,4.8"/>
			<path class="st3" d="M85.4-81.5c-0.5-1.3-1.8-3.3,0-4.5s10.3-3.8,12-2.8s1.8,2,0.5,3.3s-6.5,1.3-5.8,2.5"/>
			<path class="st3" d="M55.9-84c0,0-4-3.5-2-4s4,0,6-1.3s5.3-3.3,6-4.8s1.8-2.5,2.5-1.5s2,2,3.8,2.5s3-1,3.8,0.8s0,4.5,1.8,5
				s3.8,1,3.5,2.8"/>
			<path class="st3" d="M81.9-81.7c0.5-1.3,0-4,1.5-5s6.3-2.8,7-4c0.7-1.2,3.9-1.9,6-2"/>
			<path class="st3" d="M98.2-92.7c0.2,0.2,1.9,0.2,2.3,0.8c1.3,2.3,1.5,6.3-0.3,7.5"/>
			<path class="st3" d="M103.4-84.7c0.8-2.3,2.3-8.8,0.8-9.5s-4.8-1.5-2.8-3.5s5.8-3.8,6.8-3.3s4.5,3.5,3.8,5.3s-1.3,2.3-2.3,3.8
				s-1,4.5,0.3,5.8s2.5,0.8,2.8,2.3"/>
			<path class="st3" d="M109.7-103.7c1-0.3,2.3,1.5,2.5,3s2.3,2.8,2.5,3.8s-2.3,5-2.8,6.3s-0.3,2.8,1,4s1.5,3.8,2.8,3
				s2.8-2.3,3.5-2.8"/>
			<path class="st3" d="M105.7-84.2c0.8-0.5,0.8-1,0.5-3s0.8-6.8,0-7.8s-1.5-3,0-2.5c0.8,0.3,2.5-0.1,2.8,1.4c0.2,1.2-1,4.2-1,4.9
				c0,1.5-0.4,5.6-0.4,6.9"/>
			<path class="st3" d="M64.7-84.5c-1.3,0-4-1.3-2-2c2.8-2,9.5-2.3,11.3,0.5c1,2,2.3,3.3,2.5,5"/>
			<path class="st3" d="M86.7-83.2c0.3-1.3,6-4,7-3.3s-1.3,0-2.3,1.8"/>
		</g>
	</g>
</pattern>
<g id="Layer_1" class="st4">
	
		<image style="display:inline;overflow:visible;" width="570" height="884" xlink:href="../../../Downloads/web images/phone.jpg"  transform="matrix(0.4683 0 0 0.4683 -19 -103)">
	</image>
</g>
<g id="Layer_11">
	<circle class="st5" cx="71.5" cy="69.5" r="63.5"/>
	<circle class="st6" cx="71.5" cy="69.5" r="63.5"/>
	<circle class="st7" cx="106.5" cy="167.5" r="85.5"/>
	<circle class="st8" cx="106.5" cy="167.5" r="85.5"/>
</g>
<g id="Layer_3">
	<circle class="st9" cx="171.5" cy="71.5" r="49.5"/>
	<circle class="st10" cx="171.5" cy="71.5" r="49.5"/>
	<path class="st11" d="M66.4,84.4c-2.9,1.7-5.9,3.4-10.3,3.8c-3.3,0.5-7,1.3-10.8,1.7c-0.9-0.6-1.9,0-2.4-0.3
		c-1.2,0.4-0.9-1.2-1.5-1.8c-0.9-1.6-2.7-4.5-3.3-6.4c-1.1-2.5-1.4-4.6-1.6-6.9c-0.6-2.2-0.1-4.1,0.7-5.8c1.4-2.3,1.5-7.1,2.7-10.1
		c1.1-3.7,1.9-5.7,3.9-9.7c1.9-1.1,4.9-0.6,6.9-1.8c2.1-0.8,4.1-1.4,7-1.8c2.3-0.2,5-1,7-1.8c2-0.9,4.3-0.7,6.9-1.8
		c2.6-0.2,5.5-1.5,7.5-2c2.2-0.9,4.7-0.3,7.6-1.6c2.5-0.8,6.2-0.1,8.3-1c3-0.4,6.1-0.4,8.4-0.4c3.5,0.2,7.1-0.2,10.5-0.1
		c3.7-0.2,6.6,0.1,10.5,0.3c3,0.6,5.4,0,8,0.5c3.3,0.9,5.1,0.4,7.7,0.8c2.8,0.7,4.8,1,7.8,1c3.1,1,5.1,0.7,7.9,1.2
		c2.5,0.2,5.4,0.8,7.7,1.3c2.7,0.3,5.5,1.6,7.7,1.8c3.3,0.6,5.4,1.3,7.7,1.8c2.7,1.4,5.2,1.5,7.6,2.3c3.3,1.1,4.5,1,6.8,3.1
		c2.3,1,3,2.9,4,5.1c1.6,2.5,2.7,4.7,3.5,7.1c1,2.6,1.8,4.7,2.3,7.7c0.6,3,0.6,4.9,0.4,7.7c-0.3,2.9-1,5-1.8,7.5
		c-0.9,2.4-2.4,4.6-5.3,5.2c-1.5,0.2-2.8,0-3.6-0.1c-4.3-0.2-8.8-1.4-12.3-1.6"/>
	<path class="st12" d="M99.8,52.8c2.9-0.1,6.2,0.9,9.6,0.9c3,0.9,6.6-0.1,9.7,0.2c3.6,0.5,7.8-0.5,11.7,0.1c3.9,0.1,8,0.6,11.7,0.1"
		/>
	<g id="Layer_4">
		<path class="st13" d="M37.4,79c2.7-0.6,5.8,0.6,8.5-1.8c2.5-0.9,5.4-2.6,8.3-2.6c1.7-0.8,4.5-1.2,7-2.3c2.7-0.3,4.6-2,7-2.3
			c0.3-0.1,0.3-0.2,0.5-0.5c-0.6,0.2-0.6-0.9-0.4,0.1"/>
		<path class="st14" d="M99.8,48.9c3,0.1,4.8,0.1,7.3-0.1c2.9,0.7,4.5,0,7.1,0c1.9-0.4,4.9-0.4,7.2,0c2.2-0.2,5.1,0.8,7.2,0.3
			c2,0.3,5.1,0.2,7.1,0.3c2.1,0,4.4,0.2,7.3,0.4"/>
		<path class="st12" d="M178.6,75.6c4.3,1.2,8,1.5,12,2.8c4.8,1.2,8,1.8,12.2,2"/>
		<path class="st15" d="M156.1,50.5c0.9,0.1,0,0.1,2.2,1.1c1.5,1.3,2.6,3.7,2.9,6.3c0.3,0.8,1,1.9,0.1,2.5c-0.6,1,0.7,2.2,0,3.2"/>
	</g>
	<g id="Layer_2">
		<path class="st12" d="M181.7,167.1c1.4,0,3.3-0.7,4.8-0.4c2.2-0.9,4.5-4.1,4.8-6.3c0.8-3.1,0.2-6-0.1-8.2
			c-0.3-2.7-1.2-5.9-1.6-9.5c-0.2-3.6-0.9-6.2-1.1-9.6c-0.5-2.7-1-6.1-1.5-9.3c-0.5-3.8-1-6.7-1.6-9.8c-0.7-3.2-1.1-5.9-1.7-9.5
			c-0.4-2.9-1.7-5.8-1.6-9.6c-0.1-3.4-1.6-6.9-1.8-9.5c-0.8-3.6-1.1-6.3-1.9-9.5c-0.5-2.1-1-4.9-2.3-7.2c-1.3-1.7-2.6-3.9-5.1-4.7
			c-2-1-4.6,0.1-6.9-0.2c-2.1,0.6-4.5-0.5-6.2-1.5c-2.8-2.8-1.2-7.6-1.8-11.8c-0.7-4.1-3.7-8.5-8.1-7.1c-2.1,0.1-2.7,2.7-4.1,4.1
			c-1.3,1.9-1.1,4.4-0.9,6.5c0.2,1.4-0.2,4.3-1.6,4.9c-0.5,0-1,1-2,0.4c-2.7-0.2-5.2-0.1-7.6,0.2c-2.6,0-4.7,0.1-7.6,0.2
			c-1.9,0.6-5.7,0-7.6,0.2c-2.8,0.3-5.2-0.3-7.6,0.2c-3.9,0.7-9.6-1.5-9.4-4.8c0.1-1.8,0.7-5,0.7-6.8c0.7-2.1-0.6-3.3-4.5-4.4
			c-3.5-1.4-6.2,0.6-7.3,4.7c0,1.7-0.1,5.5-0.1,7c0.1,2.9,0.9,4.7-0.9,6.5c-2.4,1.9-3.3,2.2-6.7,1.5c-2.2,0.2-5.6-1-7.6,0
			c-3.2,1.8-3.6,5.2-5,9.3c-1.1,2.7-1.6,5.2-1.5,8.1c-0.4,3.2-1.4,5-1.5,8.1c-1.3,2.6-0.9,5.3-1.5,8.1c-0.3,2.2-0.7,5.2-1.5,8.1
			c-0.3,2.8-1.6,6.6-1.8,8.8c-0.6,2.6-0.9,5.8-1.3,9c-1.1,2.7-0.8,5.5-1.5,8.9c-0.2,2.5-0.8,5.9-1,9c-0.9,3.7-0.4,6.3-0.7,8.8
			c0.2,3-0.1,5.5-0.6,9.3c-0.1,1.8,0.2,2,0.7,3.4c1.2-0.1,3.4,0.8,3.3,1.5c2.1,0.6,5.4,0.4,8.1,0.9c2.7-1,5.4,0.1,8.1,0.4
			c3.3,0,5.6,0.3,8.6,0.3c2,0.1,6.1,0.5,8.6,0.3c3.3-0.3,6,0.1,9.6,0.1c3.1-0.2,6.6-0.5,9.6,0c3.8,0.1,7.9,0.4,12,0.1
			c3.6,0,7.5,0.3,11.1,0c3.5,0,7.1-0.1,10.1-0.1c3.1,0.5,6.4,0.8,9,0.2c2.8,0.1,5.2,0,8.1,0c2.3,0.1,4.8,0.6,7.4,0.2
			C173.6,167.4,177.4,166.8,181.7,167.1z"/>
	</g>
	<path class="st16" d="M82.1,63.6c0-0.3-0.7-2.2,0.1-2.6c0.6,0.4-0.5-0.8,0.8-1.4c1.5-2.3,1.7-4.5,5.1-4.8"/>
	<path class="st17" d="M78,63.4c0.2-1.3,1-2,1.4-2.9c0.7-1.8,1.3-3.3,3.3-5.7c0.9-1.3,2.8-3.2,5.2-4c-0.2-0.7-0.6-0.7-0.5,0.1"/>
	<path class="st13" d="M176.6,120c1.4,0.6,3.1-0.6,3.6-2c0.5-1.4,0.2-3,0-4.5c-2.6-14.1-5.3-28.3-7.9-42.4c-0.3-1.5-0.7-3.2-2-4.1
		s-3.6,0.1-3.2,1.6"/>
	<path class="st13" d="M64.4,120.7c4.5,1.3,9.3,1.6,14,1.7c32.4,1.3,64.8,1.7,97.1,1.4c1.8,0,3.7-0.1,5.4-0.7
		c2.6-0.9,4.6-3.1,5.4-5.7"/>
	<path class="st18" d="M64.3,120.9c-2.1,4-1.5,8.8-2.1,13.2c-0.3,2.1-0.9,4.1-1.3,6.1c-1.6,6.7-2.1,13.7-1.5,20.6
		c0,0.3,0.1,0.7,0.4,0.8c0.3,0,0.3-0.7,0-0.4"/>
	<path class="st18" d="M62.4,112.9c-0.2,1.3-0.4,2.6-0.5,3.8c-0.1,0.9-0.3,1.9,0,2.8c0.3,0.9,1.1,1.7,2,1.7"/>
</g>
<g id="Layer_5">
	<path class="st19" d="M74.1,66.3c2,1.9,2.6,2.3,1.7,4.4c-0.5,1.7-1.3,3.7-1.4,6.1c-0.3,2.2-0.5,4.7-1,6.3c-0.6,2.6-0.9,4.6-0.8,6.4
		c0.6,3.3-0.6,4-0.9,6.9c-0.5,2.2-0.8,4.7-0.9,6.9c0.3,2.2,0.2,4.6-0.8,6.9c-0.5,2.7-0.5,5-1,7c0.9-0.1-0.3,1.4-0.5,1.9
		c1.2-0.1,4.3,0.9,7,0.5c1.8,0.4,5.6,0.8,7.3,0.6c2.7,0.2,4.7,0.1,7.2,0.4c2.7-0.1,4.6,0.3,7.1,0.3c2.8,0,4.8,0.2,7.1,0
		c2.5,0.2,4.8,0.8,7.2,0.6c3.7,0.4,7.2-0.1,10.8,0.2c3.5-0.5,7.1,0.7,10.7,0.2c4,0.3,7.6,0.1,10.9,0.1c3.6,0,6.9-0.3,10.6-0.1
		c3.3-0.4,7.4,0.1,10.8-0.7c3.3-0.4,7-0.6,10.7-1.6c-0.3-3.2-0.8-6.8-1.1-10.7c0.4-4.1-1.6-7.5-1.4-10.6c0.5-1.9-0.8-4.4-1.1-6.7
		c-0.4-2.2-1.1-3.8-1.3-6.7c-0.6-2.8-0.7-4.2-1.4-6.6c-0.6-1.7-1-4.6-1.5-6.6c0.5-0.3,0.2-1.2-0.7-1.5c-0.5-0.5-0.6-0.9-1.5-0.4
		c-3.1,0.2-6.2-0.2-9-0.3c-2.7-0.4-6.4-0.6-8.8-0.5c-2.6,0.1-5.3-0.5-8.7-0.3c-3.1-0.2-6.1,0.2-9.2-0.3c-2.5-0.3-6.1-0.8-9-0.2
		c-3.1-0.3-6-0.2-8.9-0.2c-3.2-0.4-6-0.4-8.9-0.1c-3.7,0-6.1-0.7-9,0.1c-2.6,0.3-5.5,0-8.8,0c-3.2,0.2-6,0.5-9,0.4
		c-0.4,0.3,0.1,0.1-0.1,0.2"/>
	<g id="Layer_6">
	</g>
	<path class="st20" d="M67.5,118.6c-0.7-0.1-2.5-0.5-2.6-0.2c0.5-2.5,0.8-5.5,1.2-7.4c0.6-2.8,0.8-5.2,1-7.3c0-2,1-4.7,1.2-7.3
		c0.1-2.1,0.7-4.9,1.3-7.3c0.8-3.3,1.1-6.8,1.7-9.7c1.3-2.9,0.4-7.4,2.1-11.6c0.2-0.1-0.1-0.6,0-1.3c30.9-1.2,62.1-0.7,93,1.6
		c0.4,0,1,0.1,1.2,0.5c0.2,0.4-0.2,1-0.6,0.8"/>
	<path class="st21" d="M146.1,118.2c-0.1-2.1,0-3.9-0.4-6.5c-2.5-0.2-4.7,0.1-7.9-0.3c-3-0.3-5.7,0-7.8-0.3
		c-2.6-0.1-5.2-0.1-7.9-0.2s-5.2-0.1-7.9-0.1c-2.4,0.3-4.9,0.2-7.9,0c-2.4-0.2-4.6,0.1-7.9,0c0.5,2.1,0.4,4.4-0.3,6.9
		c2.7,0.3,4.4,0.4,6.7-0.1c2.4,0.6,4.1-0.3,6.7,0c1.5,0.1,4,0.2,6.7,0.1c3.2,0.2,4.5,0.2,6.7,0.2c2.3,0.1,4.5-0.3,6.7,0.2
		c2-0.1,4.3,0.8,6.6,0.5c2,0.1,5.2,0.1,7-0.3C145.2,118.8,147.1,118.7,146.1,118.2z"/>
	<path class="st21" d="M134.5,104.8c2.9,0.6,7.3,0,9.6-0.2c0.9-2.2,0.1-3.1-0.3-5.8c-2-0.2-7-1.3-8.7-0.2
		C134.1,99.2,133.7,104.7,134.5,104.8z"/>
	<path class="st21" d="M134.6,94.3c2.9,0.4,6,0.8,8.8,0c-0.3-1.8-0.5-3.6-0.4-5.4c0,0.1-7.6-0.2-7.9,0.3
		C134.3,90.1,133,94.1,134.6,94.3z"/>
	<path class="st21" d="M133.7,84.8c2.8,0.1,6.1-0.3,8.8,0.3c0.2-1.6,0.6-3.8-0.4-5.7c-0.1,0.1-6.3,0.5-7,0
		C133.1,80.2,134.1,82.7,133.7,84.8z"/>
	<path class="st21" d="M133.9,75.9c2.6,0.2,5.7-0.4,8.5,0.2c-0.3-2.2,0.4-3-0.3-4.7c-2.5,0.2-6.5-1.6-8.2,0.2
		C133.1,72,132.6,75.8,133.9,75.9z"/>
	<path class="st21" d="M117.6,104.8c3.1,0,6.1,0,9.2,0c0.2,0,0.4,0,0.5-0.1c0.2-0.1,0.2-0.4,0.3-0.6c0.3-1.7,0.1-3.5-0.6-5.2
		c-1.9-0.3-7-1.6-8.7-0.5C117.4,99.1,116.9,104.8,117.6,104.8z"/>
	<path class="st21" d="M117.4,94.3c3.2,0.5,6.4,0.6,9.5,0.2c0.3-1.6,0.2-3.3-0.2-4.9c-0.3-0.7,0.1-0.4-0.3-0.5
		c-0.5-0.5-0.1,0.2-0.4-0.1c-2-0.2-5.8-1.3-7.7,0c-1.2,0.6-0.9,0.5-1,2.1C117.3,91.4,117.3,94.3,117.4,94.3z"/>
	<path class="st21" d="M117.6,84.8c3.3,0,5.7,0.8,8.4,0c-0.4-0.4,0.6,0.5,0.7-0.1c0.5-0.5-0.1-1,0.5-1.2c1.1-1.5,0-3.3-0.5-3.9
		c0.7-0.5-7-0.2-7.8-0.4C116.5,79.8,117.6,82.6,117.6,84.8z"/>
	<path class="st21" d="M117.5,75.6c3.4-0.2,5.5,0.3,8.6,0.4c0.2-0.3,0.7-0.4,0.5-0.1c0.1-0.8,0.2-1.3,0.1-0.7
		c0.1-1.2-0.3-2.6-0.7-3.9c-1.4-0.2-5.7-1-7.2-0.2C118.2,71.3,117,75.3,117.5,75.6z"/>
	<path class="st21" d="M100.8,104.2c3.2,0,6.4,0,9.5,0c0.2-1.8,0.1-3.6-0.2-5.4C110.2,101.1,97.7,94.6,100.8,104.2z"/>
	<path class="st21" d="M100.9,94.3c3.1,0.1,6.2,0.1,9.4,0.2c-0.1-1.5-0.2-3.1-0.2-4.6c0-0.3,0-0.6-0.2-0.8c-0.2-0.2-0.6-0.2-0.9-0.1
		c-2.1,0.4-4.9-0.2-6.9,0.3C99.9,90,100.8,92.1,100.9,94.3z"/>
	<path class="st21" d="M101.3,84.3c3.6,0.1,6.1-0.1,9.4,0c0-1.4,0.3-3.3-0.3-4.5c-0.2-0.6-6.6,0-6.9,0.2
		C101.4,80.7,101.7,81.9,101.3,84.3z"/>
	<path class="st21" d="M111.5,75.7c-0.2-1.3,0.2-3-0.6-4.6c-0.2-0.4-5.7-0.5-6.2-0.1c-1.8-0.1-2.1,1.2-3,2c-1.1,1.8,1,3.2,2.5,2.9
		C107.1,75.7,109.3,76.1,111.5,75.7z"/>
	<g id="Layer_7">
		<path class="st21" d="M100.6,100.5c-0.5-0.4-1.2-0.1-1.5,0.4s-0.3,1.1-0.3,1.7c-0.1,1.7-0.2,3.8-0.1,6c0,0.2-0.2,0.9,0.2,0.7
			c-0.2-0.4,0.2-0.1,0.4,0.1c4.9,0.4,8.6,0.1,12.5,0.1c0.2-2.9,0.3-5.9,0.2-8.8c-0.7-0.2-1.6,0-2.1,0.6"/>
		<path class="st21" d="M100.8,104.3c0.4,0.6,0.8,1.6,0.1,2.7"/>
		<path class="st21" d="M100.9,107c2.5-0.6,6,0.1,9.5,0.4c-0.2,0.2-0.4-0.2-0.4-0.5c0.1-0.9,0.3-1.8,0.4-2.8"/>
		<path class="st21" d="M117.4,100.8c-0.6-0.2-1.2-0.2-1.8-0.1c0.3,2.7,0.5,5.4,0.7,8.1c0,0.1,0,0.2,0.1,0.3
			c0.1,0.1,0.2,0.1,0.3,0.1c4.2,0.1,8.4,0.1,12.7,0.2c-0.1-2.5-0.1-5-0.2-7.4c-0.5,0-1,0-1.6,0"/>
		<path class="st21" d="M117,104.7c-0.1,0.8,0,1.7,0.4,2.4c3.5,0.2,7,0.3,10.5,0.3c0.1-0.8,0-1.7-0.4-2.4"/>
	</g>
	<path class="st21" d="M134.1,104.4c0.4,0.9-0.1,1.8-0.1,2.1c-0.5,0-0.7,0.1,0.1,0.7c0.6,0.7,0.8,0.4,1.1,0.2
		c3.3-0.8,5.8-0.6,9.4,0.1c-0.8-2.3-0.4-4.1,0.1-5.8c0.2,0.3,0.2-1.2-0.1-0.7c0.1,0.7,0.7,0.5,1.2,1.4c0.6,1.8,0.2,4.2,0.4,6.8
		c0-0.4-0.4,0.3-0.1,0.6c-0.4,1-1-0.1-0.6,0.2c-2,0-4.5,0.4-6.4,0.5c-2.1-0.2-3.7,0.1-6.4-0.2c-1.2-3.3-0.5-6.2,0.1-9.3
		c0.5,0,1-0.1,1.5-0.2c-0.2,0.5-0.7,1-1.3,1"/>
	<path class="st21" d="M101.3,90.2c-0.7,0.2-1.5,0.4-2.3,0.3c0.2,0.9,0,2.1,0.2,3c0.1,0.6,0.2,1.2,0.3,1.7c0.1,1.3-0.1,2.5-0.6,3.7
		c2.5,0,5,0.1,7.4,0.1c2.3,0,4.6,0.1,6.9-0.1c0.1-2.2-0.8-4.6-1-6.9c-0.3,0.1-1.3-0.1-1-0.1c0.3,0,0.8-0.1,0.8,0.2"/>
	<path class="st21" d="M100.5,95c0.1-0.3,0.3-0.5,0.4-0.8c0,0.8,0,1.5,0,2.3c0,0.1,0,0.3,0.1,0.4c0.1,0.1,0.3,0.1,0.4,0.1
		c3.1,0.1,6.2,0.2,9.4,0.3c-0.2-0.9-0.4-1.8-0.6-2.7"/>
	<path class="st21" d="M118,90.9c-0.9,0.1-1.8,0.1-2.7-0.1c0.1,2.8,0.4,5.7,0.5,8.4c0.5,0.1,1.1,0,1.6-0.1"/>
	<path class="st21" d="M127.1,91.2c0.7,0.1,1.4,0.1,2.1,0.1c-0.2,2.7-0.3,5.4-0.5,8.1c-0.6,0-1.3-0.1-1.9-0.3"/>
	<path class="st21" d="M117.5,94.5c0.1,0.9,0.2,1.8,0.3,2.7c3.3,0.1,6.5,0.2,9.8,0.3c-0.2-1-0.4-2-0.6-3"/>
	<path class="st21" d="M133.9,91c-0.6-0.1-1.3-0.2-1.9-0.3c-0.3,2.8,0.1,5.7,1.3,8.3c0.5,0.4,1.1,0.4,1.7,0.2"/>
	<path class="st21" d="M144,99.3c-0.2-0.2-0.5-0.1-0.2-0.2c0.9-0.3,2,0,2.6-0.3c-0.8-1.8-1.1-3.9-0.6-5.8c0.1-0.2,0.1-0.5,0-0.7
		c-0.2-0.2-0.5-0.3-0.8-0.3c-0.4,0-0.7,0-1.1,0"/>
	<path class="st21" d="M133.8,94.5c0.1,0.1,0.2-0.2,0-0.2c-0.2,0-0.2,0.2-0.2,0.4c0,0.8,0,1.7,0.1,2.5c3.4,0,6.8,0.1,10.1,0.1
		c0-1,0-2,0-2.9"/>
	<path class="st21" d="M101.2,81.6c-0.4-0.2-0.7,0.4-0.9,0c-0.2,2.4-0.3,4.8-0.5,7.1c0,0.2,0,0.5,0.2,0.7c0.1,0.1,0.3,0.1,0.5,0.1
		c3.8,0,7.6,0,11.4,0c0.2,0,0.3,0,0.5-0.1c0.2-0.1,0.3-0.4,0.3-0.7c0.9-1.3,0.5-2.6,0.4-4c0-0.6,0.5-1.4-0.2-2
		c0-0.8-0.9-0.4-1.6-0.8"/>
	<path class="st21" d="M101.5,84.2c0.2,1.1,0.3,2.2,0.5,3.3c3,0.3,6,0.4,9.1,0.4c-0.8-1.8,0-2-0.3-3.3"/>
	<path class="st21" d="M101.7,72.8c0,0.8-0.6,0-1.2,0c-0.6,2.2-1,4.6-0.1,7c0.6,0.8,1.6-0.1,2.7,0.3"/>
	<path class="st21" d="M111.5,72.9c1.1,0.2,0.8,0.2,1.5,0.9c0.8,1,0.3,1.2,0,1.9c-0.2,1.2,0.4,2-0.2,4.2c-0.5,0-1.6-0.1-2.2,0"/>
	<path class="st21" d="M102.1,75.7c0,1.1,0.3,1.4,0,2.9c3.2,0.4,6.2-0.4,9.3,0.4c-0.8-1-0.1-1.9-0.1-2.9"/>
	<path class="st21" d="M117.8,72.7c-1.3-0.9-1.3-1-2.1-0.2c0,1.9-0.5,5,0.5,7.5c0.1,0,0.8-0.1,1.2-0.1"/>
	<path class="st21" d="M126.6,73.4c1.2,0.4,1.5-0.1,1.9,0.6c-0.4,0-0.1,0.8,0,0.5c-0.5,1.7-0.4,3.9-0.1,5.5c-0.3,0.2-0.8-0.4-1.2,0"
		/>
	<path class="st21" d="M117.6,75.3c0.2,1.2-0.1,2.2,0.4,3.2c2.5-0.2,4.6,0.4,6.6,0.6c0.5-0.8,0.8,0,1.6-0.1c-0.1,0.1,1.3-0.3,1-1.1
		c-0.3-0.8-0.9-1-0.5-1.8"/>
	<path class="st21" d="M117.4,81.8c0.2-0.2-1.5,0.1-1.7,0c0.5,2,0,4.7,0.5,7.4c0.5,0.3,1.2,0.3,1.8,0.1"/>
	<path class="st21" d="M127.3,82.3c-0.1,0.2,1.3,0.1,1.7,0.5c0.2,0.9,0.6,1.3,0.2,2c-0.5,1.5-0.7,3-0.5,4.4c0.2,0.2-0.9-0.4-1.9,0"
		/>
	<path class="st21" d="M117,84.4c0.5,0.7,0.9,1.8,0.6,2.7c0.2,0.1,0.1,0.6,0.1,0.5c0.4,0.1,0.7,0.2,0.4,0.1c2.4-0.1,6.3,0.2,9.1,0
		c0-1.2-0.4-2-0.5-2.8"/>
	<path class="st21" d="M132.8,73c-0.4-0.2-0.8,0.1-1.4,0c0,1.6-0.5,3.3-0.4,4.9c0.1,0.3,0.5,1,0.6,2.1c0.1,0.2,1.2,0.5,1.9,0.4
		c-0.4-0.1,0.1,0-0.5,0.1"/>
	<path class="st21" d="M133.4,75.8c0.1,0.9,0.4,2.1,0.1,2.8c2.6,0.6,6,0.4,9.1,0.3c-0.3-1.1,0.7-4.6-0.2-5.1c1,0.5,1.1-0.3,1.5,0.3
		c-0.1,1.9-0.5,4.1-0.1,6c-0.4,0.3-0.8,0.1-1.3-0.3"/>
	<path class="st21" d="M133.2,81.9c0.4,0.1,0.1,0.5-0.7,0.2c-0.1-0.1-0.1-0.4-0.8-0.1c0-0.1-0.3,0.4-0.1,0.4
		c-0.1,1.9,0.5,4.4,0.5,6.5c-0.3-0.2,0.5,0.1,0.2,0.4c-0.1,0.1,0.4,0,0.4,0.1c0.2,0.3,1.1,0.4,2.2,0.2c0.2-0.6,0.4-0.7,0-0.6"/>
	<path class="st21" d="M142.9,88.9c0.6,0.3,1.3,0.3,1.9,0.2c-0.3-2.1-0.2-4.5,0.1-6.4c0.2,0.5-1,0.3-0.6-0.1
		c0.6,0.2,0.2-0.6-0.5-0.3c0,0.2-0.1,0.3-0.2,0.4c-0.1,0.7-1.3,3.5-1.2,4.6c-0.1-0.1-0.7,0.4-0.1,0.5c-0.2,0.2-1.1,0.1-0.4,0.1
		c-2.9,0.2-5.1,0.2-8-0.4c0.8-0.8,0.2-2.1-0.2-2.5"/>
	<path class="st21" d="M105.6,81c1.3,0.3,0.3,0.1,1.6,0.1"/>
	<path class="st21" d="M108.6,80.3c0,0.4,0.3,0.9,0.1,1.7"/>
	<path class="st21" d="M106.4,82.4c-0.2,0.5-1.9,0.8-1.7,1.5c0.8-0.4,1.8-0.5,2.7-0.3"/>
	<path class="st21" d="M106.2,82.4c0,0.5,0.2,1.3,0,1.6"/>
	<path class="st21" d="M119.9,80.7c0.2,0.6,0.6,0.7,0.2,1c-0.6,0.1-0.1,0.1-0.6,0.7c-0.7,0.6-1.2-0.7-0.6-0.6"/>
	<path class="st21" d="M121.6,80.6c-0.1,0,0.1,1-0.3,1.7"/>
	<path class="st21" d="M122.6,80.7c-0.4,0.1-0.4-0.2,0.1,0c0.6,0-0.3-0.2-0.1,0.1c-0.4-0.3-0.6,0.4-1.1,0.6"/>
	<path class="st21" d="M122.8,82.4c-0.3-0.3-1.1-1.2-1.3-0.8"/>
	<path class="st21" d="M123.7,80.5c0.4,0.7,0.6,1.2,0.3,1.9c0.3,0.4,1.2,0.4,1.3,0"/>
	<path class="st21" d="M122.8,82.6c-0.2-0.9-0.8,0.1-1.8,0.2c0.2,0.3-0.2,0.7,0,0.6c0.5,0.3,1.2,0.1,1.3,0c0.2,0.3,1.2,0.7,0.6,0.9
		c-0.5,0-0.9,0.4-1,0.1"/>
	<path class="st21" d="M134.8,82.2c-0.1,0.1,0.5-0.5,0.3-1.4c0.6,0.7,0.5,0,0.6,0.5c0,0.1,0.5,0.2,0.5-0.5c0.6,0.5,0.4,1,0.4,1.5"/>
	<path class="st21" d="M137.2,82.3c0.6-0.3,0-0.9,0.1-1.2c-0.1,0.5,1,0.9,1.3,1.3c0.3-0.4,0.1-0.1,0-1.2"/>
	<path class="st21" d="M140.9,80.9c-0.5-0.7-1.3-0.5-1.3,0.5c-0.1,0.5,0,1.3,0.9,1.1c1.4-0.2,0.4-0.5,0.5-1.2"/>
	<path class="st21" d="M138.7,82.8c-0.1-0.1-0.7,0.3-1,0.5c0.1,0.3-0.7,0.6-0.2,1c-0.1,0.5,0.9,0.1,1.2,0.4c0.2-0.3,0.4,0.1,0.7-0.2
		c0.7-0.9,0.5-0.3,0.2-0.7c-0.7-0.9-0.7-0.3-0.9-0.3c-1.2-0.5-0.8,0-1.1,0.2"/>
	<path class="st21" d="M102.5,91.3c-0.1-0.3-0.1-0.6-0.2-0.9c0-0.2-0.1-0.4,0-0.5c0.1-0.1,0.2-0.2,0.4-0.2c0.3-0.1,0.5-0.1,0.8-0.1
		c0.3,0.1,0.5,0.3,0.5,0.6c0,0.3-0.3,0.5-0.6,0.6c-0.3,0-0.6-0.1-0.9-0.2"/>
	<path class="st21" d="M104.6,89.9c0.3,0.5,0.4,1,0.2,1.6"/>
	<path class="st21" d="M104.5,89.7c0.6,0.3,1.4-0.3,1.8,0.2c0.2,0.3,0,0.7-0.3,0.8s-0.7,0.1-1,0.1c0.5-0.2,1.1,0.2,1.2,0.7"/>
	<path class="st21" d="M108.7,89.9c-0.3-0.1-0.5-0.2-0.8-0.1c-0.3,0.1-0.5,0.4-0.4,0.6c0.2,0.4,1.1,0.3,1.2,0.7
		c0,0.2-0.2,0.4-0.4,0.4c-0.2,0-0.4-0.1-0.6-0.2"/>
	<path class="st21" d="M104.3,92c0.8-0.1,1.6,0,2.3,0.1c-0.4,0.6-0.9,1.1-1.3,1.7"/>
	<path class="st21" d="M118.6,89.7c0.8,0.1,1.7,0.5,2.1,0.3"/>
	<path class="st21" d="M119.8,89.9c0.1,0.7,0,1.3-0.1,2"/>
	<path class="st21" d="M121,90c0,0.4-0.1,0.9,0.1,1.3c0.2,0.4,0.6,0.7,1.1,0.6c0.6-0.2,0.6-1,0.6-1.6"/>
	<path class="st21" d="M123.2,90c0.2,0.5,0.4,1.1,0.7,1.6c0.1,0.1,0.1,0.3,0.3,0.3c0.1,0,0.2-0.1,0.3-0.2c0.4-0.4,0.7-0.8,0.9-1.3
		c0.1-0.3,0.3,0.1,0.1-0.2c0,0.1-0.3,0-0.2,0"/>
	<path class="st21" d="M122.5,92c-0.6-0.2-1.4,0.3-1.5,0.9c0.4-0.1,0.8,0.1,1.2,0.2c0.4,0.1,0.9-0.2,0.8-0.6
		c-0.1-0.3-0.5-0.4-0.9-0.4"/>
	<path class="st21" d="M121.2,92.8c-0.3-0.1-0.6,0.4-0.4,0.7c0.2,0.3,0.6,0.3,1,0.3c0.6,0,1.1,0,1.7,0c0.2-0.2,0.1-0.6-0.1-0.7
		c-0.2-0.2-0.5-0.2-0.8-0.2"/>
	<path class="st21" d="M135.2,89.9c0.3,0.5,0.6,1.1,0.8,1.7c0.1-0.4,0.3-0.7,0.4-1c0.2,0.4,0.4,0.9,0.6,1.3c0.3-0.5,0.5-1.1,0.5-1.7
		"/>
	<path class="st21" d="M138.1,89.9c0.5,0.6,1,1.2,1.5,1.9"/>
	<path class="st21" d="M140.1,89.9c-0.7,0.7-1.6,1.3-2.4,1.9"/>
	<path class="st21" d="M140.1,89.7c0.4,0.4,0.8,0.8,1.2,1.2c0.3-0.3,0.6-0.6,0.9-1"/>
	<path class="st21" d="M141.3,90.8c0.1,0.4,0.2,0.9,0.2,1.3"/>
	<path class="st21" d="M139,92.3c-0.7-0.3-1.6,0.1-1.8,0.8c0.7,0.1,1.5,0.2,2.2,0.2c0.4,0,0.8-0.1,0.9-0.4c0.2-0.4-0.3-0.9-0.8-0.8
		c-0.1,0-0.2,0-0.3,0c-0.1,0-0.1-0.1-0.1-0.2c0.1-0.1,0.2,0.1,0.1,0.1"/>
	<path class="st21" d="M140.1,92.9c-0.7,0.3-1.3,0.8-1.8,1.4"/>
	<path class="st21" d="M102.8,102c1.7-0.1,3.5-0.2,5.2-0.3"/>
	<path class="st21" d="M106.8,100.5c-0.8,1.1-1.8,2.1-3,2.9"/>
	<path class="st21" d="M103.7,100.5c1.2,0.9,2.4,1.8,3.7,2.6"/>
	<path class="st21" d="M120,99.9c-0.3-0.1-0.7-0.2-1-0.1c-0.3,0.1-0.6,0.4-0.6,0.7c0,0.1,0.1,0.3,0.2,0.4c0.2,0.2,0.6,0.3,0.9,0.2
		c0.3-0.1,0.5-0.5,0.5-0.8"/>
	<path class="st21" d="M120.9,99.5c0.3,0.5,0.4,1.1,0.1,1.6"/>
	<path class="st21" d="M120.9,99.5c0.3,0,0.6,0,0.9,0.1c0.3,0.1,0.5,0.4,0.4,0.7s-0.5,0.4-0.7,0.2"/>
	<path class="st21" d="M123.7,99.8c-0.4-0.1-0.9,0-1.3,0.2c0.1,0.4,0.1,0.8,0.2,1.3c0.4,0,0.8,0,1.2,0"/>
	<path class="st21" d="M122.5,100.4c0.3,0.1,0.6,0.1,0.9,0.2"/>
	<path class="st21" d="M124.9,99.8c0,0.5-0.1,1.1-0.4,1.6"/>
	<path class="st21" d="M124.8,99.7c0.5-0.1,1,0.2,1.2,0.7c-0.3,0.2-0.7,0.3-1.1,0.2"/>
	<path class="st21" d="M125.3,100.7c0.1,0.3,0.3,0.6,0.7,0.8"/>
	<path class="st21" d="M122.1,102.2c-0.4,0-0.9,0.2-1.1,0.6c-0.2,0.4-0.1,0.9,0.2,1.2c0.2,0.2,0.5,0.3,0.7,0.4
		c0.5,0.1,1.2,0.1,1.5-0.3c0.3-0.4,0.2-1-0.1-1.4S122.6,102.2,122.1,102.2"/>
	<path class="st21" d="M137.4,101.8c1.3-0.4,1.9-0.4,3.8,0"/>
	<path class="st21" d="M137.1,103.2c1.1-0.4,3.4-0.4,4.2,0"/>
	<path class="st21" d="M138.1,100.8c0.3,0.9,0.4,2.2-0.2,2.9"/>
	<path class="st21" d="M141.1,100.8c0,1.6-0.3,1.8-0.7,3"/>
	<path class="st22" d="M103.4,113.6c0.7-0.4,0.7-0.4,0.9-1.5c-0.4,0.5,0.5,0.7,0.6,1.2"/>
	<path class="st22" d="M103.5,112.8c-0.1,0.5,0.4,0.8,0.9,0"/>
	<path class="st22" d="M105.1,112c0.4,0.5,0.2,0.4,0.4,1.4"/>
	<path class="st22" d="M104.8,112c0.3-0.4,0.8-0.6,1.1,0c0.4-0.3,0.6,0.3,0.5,0.2c-0.1,0.4-0.2,0.6-0.4,0.5
		c-0.6,0.2-0.4-0.3-0.7,0.1c0.5-0.4,0.5,0.6,1.5,0.7"/>
	<path class="st22" d="M107.8,112.2c-0.4-0.2-1.2,0.3-1.1,0.6c-0.4,0.2,0.6,1.1,1,0.8"/>
	<path class="st22" d="M106.5,112.8c0.4,0.2,0.8,0,1.2,0.1c-0.2-0.7,0.5-0.3,1.1-0.8c0.6,0.2,1,1.9,1,1.4"/>
	<path class="st22" d="M108,112.8C107.6,113.2,107.9,112.6,108,112.8c0.9-0.2,0.8,0.3,1,0"/>
	<path class="st22" d="M111.1,112.4c0.6,1,1.7,1.5,1.7,0.8"/>
	<path class="st22" d="M112.4,112.3c0.4,0.7,0.8,1.8,0.2,2"/>
	<path class="st22" d="M115,112.5c-0.4,0-0.1-0.3-0.6,0c-0.8-0.1-0.6,0-0.5,0.3c-0.3,0.7,0.3,0.4,0.6,0.5c1,0.3,0.9,1.6,0.6,1.2
		c-0.2,0.1-0.4,0-0.7,0c0,0.3,0-1.2-0.5-0.5c0.1-0.2,0-0.8,0.4-0.7c0.2-0.6,0.6-0.5,0.6-0.6c0.2,0.1-0.9,0.1-0.2,0"/>
	<path class="st22" d="M117.3,112.4c-0.7-0.2-0.9,0.8-1.3,1.2c0.1,0.5,0.6,1.1,1.7,0.6c0.4-0.3,0.5-1.1,0.1-1.5
		c-0.2-0.2-0.5-0.3-0.6,0"/>
	<path class="st22" d="M119,113.6c0.6,0,1.3,0,1.9,0.1c0,0,0,0-0.1,0"/>
	<path class="st22" d="M123.4,112.6c-0.3-0.1-0.6-0.3-0.8-0.2c-0.3,0.1-0.5,0.4-0.4,0.6c0.1,0.2,0.4,0.3,0.6,0.3
		c0.3,0.1,0.5,0.2,0.6,0.4c0.1,0.2,0.1,0.6-0.1,0.7c-0.1,0.1-0.2,0.1-0.3,0.1c-0.2,0-0.5,0-0.6-0.1c-0.3-0.3-0.1-0.7,0.2-1
		c0.3-0.2,0.7-0.4,0.8-0.8"/>
	<path class="st22" d="M125.2,112.6c0,0.5,0.3,1-0.1,1.6"/>
	<path class="st22" d="M128.2,112.6c-1-0.3-1,0.4-0.9,0.2c-0.8-0.6,0,0.1-0.2,0.2c-0.6,0.2,0.8,0.9,0.5,0.6c0-0.1,0.8,0.3,0.8,0.3
		c0.5,0.9,0.5,0.1-0.2,0.7c0.3,0.5-0.5,0.3-0.8,0c-0.1,0.3,0-0.1-0.2-0.2c0.1-0.1,0.2-1,0.4-0.5c0.1,0.2,1.1-0.1,0.7-0.2
		c-0.4-0.3,1.1-0.6-0.2-0.9"/>
	<path class="st22" d="M129.6,113.9c-0.3-0.3,1.8,0.6,1.7,0"/>
	<path class="st22" d="M132.1,112.9c-0.2,0.2,0,0.8,0.3,1c0.9-0.2,1.3,0.5,1.8,0.1"/>
	<path class="st22" d="M133,112.9c-0.1,0.3,0.3,0.3,0.3,0c0.2,0.1,0.9,1.3,0,1.9"/>
	<path class="st22" d="M134.5,113c0,0.1,2-0.1,1.8,0.2c-1.1,1.5-1.2,0.2-1.1,1.5"/>
	<path class="st22" d="M137.1,113.3c-0.2-0.4,0.6-0.5,0.9-0.2c0.3,0.6,1.5,0.5,0.7,0.5c0.5,0.7,0,0.6-0.3,0.3
		c-0.6-0.7-0.5,0.6-1.1,0.7c1-0.3,0.4,0,2,0.1c0.5,0.4-0.7,0.6-0.1-0.1"/>
	<path class="st22" d="M141.6,113C142,112.5,141.2,113.2,141.6,113c0.2,0,0.5-0.4-0.1,0.1c-1-0.4-0.3,0.8-1.4,0.1
		c0.2,0.2,0.1,1.2,0,0.7c0.6,0,0.9,0.6,1.2,0c0.1-0.3-0.3,0.6-0.3,0.9c-0.7-0.5-0.6,0.7-0.9-0.2"/>
	<path class="st22" d="M104.8,114.1c-0.1,0-0.3-0.1-0.9,0c-0.4,0-0.5-0.2-0.2,0.8c-0.2,0.8,1.1,0.1,0.9,0c0.1,0,0.1,0.1-0.1,0"/>
	<path class="st22" d="M106.3,114c-0.7,0-0.1-0.2-0.8,0.3c0.1,0.4,0.1,0.1-0.1,0.2c0.1,0.2,0.2-0.5,0.3,0.4c-0.1,0.4,0.4,0.4,0.7,0
		c0.6,0.2,0.1-0.6,0.1-0.6c0.5,0.3,0.1-0.2-0.5-0.3"/>
	<path class="st22" d="M107.1,114c0.1,0.7,0.3,0.2,0.1,1.1"/>
	<path class="st22" d="M107.1,114c0.7,0.3,0.8,0,0.6-0.1c0.4-0.5,0.3-0.1,0.5,0.3c-0.2,0.6,0.2,1-0.3,0.8c-0.2,1-0.3,0.1-0.9,0.1"/>
	<path class="st22" d="M110,114.1c0-0.1-0.8,0-0.9,0c-0.2-0.2-0.1-0.2-0.2,0.1c-0.1,0.3-0.3,0,0,0.1c0.5,1.3,0.6,1.3,0,1
		c0,0.1,0.9,0.1,0.9,0"/>
	<path class="st22" d="M108.8,114.7c0,0.6,0.6,0.2,0.7,0"/>
</g>
<g id="Layer_8">
	<path class="st23" d="M39.3,59.1c-3.7-0.5-4.9-2.7-8.5-1.8c-3.2,1-5.5,0.5-8,3c-2.6,1.5-2.4,5.3-1.2,8c0.2,0.2-0.1,1.8,0.6,1.5
		c0.3,0.9-0.4,0.6-0.8,1.5c-0.6,1.8-0.3,2.8,1.1,3.5c-1.2,0.5-1.6,1.9-1.1,2.8c-0.7,0.2,0,1.2,0.6,1c0,0.4-0.7,0.6-0.1,1
		c-0.4,0.1-0.1,1.9,0,1.5c0.7,1.7,0.4,5.2,0.6,7.9c0.2,0.7-0.1,1.6,0.9,2c-0.6,0.1-0.8,0.7-1.1,0.6c0-0.2-0.5,0.9,0.2,1.4
		c0.4,0.6,0.8,0.6,0.7,1.8c0.5,2,0.2,3.5,0.5,5.6c-0.6,1.5,0.4,3.3,0.4,4.3c0.2,3.9,0.2,6.7-0.7,10.7c0.1,2.1-1,5.5-0.8,6.6
		c0,3.1-0.9,6.1-1.5,8.7c0,1.4-1.3,3.2-1.7,5.2c0.4-0.7,1-1.1,0.8-1.7c-0.8,3.7-2.2,7.2-3,10.2c-0.6,4.3-2.3,7.9-3.8,11.7
		c-0.8,2.4-2.8,4.8-2.8,7.5c-1.9,1.9-2.5,4-4.7,5.8c-1.3,1.4-1.3,3.1-2.4,4.4c-0.3,1.1-0.8,3.6-1,4.7c-0.5,2.6,1,4.9,2.5,7.4
		c1.2,1.9,4.5,3.8,6.6,4.3c0.6,1.5,1.9,2.5,3.4,2.7c0.7,0.3,2.1,0.4,2.5,0.4c0.4,0.7,1.5,1.1,1.7,1.1c2.2,1.4,4.1,1.1,6.3,0.3
		c1.7,2.2,4.9,2.5,7.2,0.9c2.2,2.1,5.4,1.3,7.7,0.4c0.1-0.4,0.7-0.5,1-0.3c0,0,1.3,0,1.6,0.4c1.6-0.1,3,0,4.7-0.4
		c0.8-0.1,0.3-1.2,1.5-0.8c1.2-0.7,2.1,0.5,2.8,0.7c2.5,0.3,4.1-1.6,6.5-2c0.5-0.1,1.9,0.5,3,0c0.8,0.2,1.5-0.8,2.3-1.3
		c2.4-1.5,4.9-1.9,7.2-2.7c3.9-0.7,4.6-4.9,5.6-7.5c1.2-3,0.6-6.5-1.1-9.2c-1.4-1.7-3.5-4.5-5.6-5.3c-1.1-0.8-1.5-1.8-2.7-2
		c-0.4,0.1-0.2,0.1-0.5,0.3c-0.4-1.3-1.4-2.5-2.8-2.5c-1.1-0.7-2.3-1.2-4.1-1.1c-3.4-1.2-6.8-2.1-9.3-4.6c-2.6-2.3-4.3-4.5-5.7-8.4
		c-0.9-2.9-2.9-5.5-1.2-7.6c0.2-2.4,3.8-4.6,3.6-7.4c3.1-0.1,1.9-1.9,2.1-4.3c0.7-0.9,2.6-1.2,3.1-2.9c0.7-1.1,0.9-1.8,1.4-3.9
		c0.6,0.1,0.1-1,0.1-1.4c0.1-1,3.1-1.8,3.1-3.2c0.6-1.3-0.8-2-1.8-2c-0.9,0-2.4-0.2-2.9-0.2c-2.1,0.7-4.2-1.4-3.6-3
		c1.4-0.8,3.7-1,4.8-0.2c1.3,1.9,3.1,2.2,4.1,2.8c1.3,0.3,1.5,1.4,2.2,1.9"/>
	<path class="st23" d="M38.2,62.3c-3-2.1-6.2-2.6-8.9-1.7c-2.9,0.3-5.2,4.5-4.9,6.9c1-1.5,2.6-3.2,4.4-4c2.5-0.5,4.6,1.2,4.8,2.2
		c0.5,2.4-2.9,3.4-3.5,4.6c1.2,1,2.6-0.1,3.1,0.3c1,1.9,1.6,3.2-1.4,4.7c1.2,0.6,1.3-0.2,1.7,0.2c-0.6,1.7,1,2.6,0.6,3.9
		c-0.9,1-0.9,1.1-1.3,1c0.6,0,0.4,0.8,1.1,0.3c0.3,2.4-0.5,6.8,1,9.6c0.2,3.1,0.3,6.7,1,9.6c0.5,2.2,0.6,4,0.4,6.6
		c-0.1,2,0.7,5-0.2,6.7c-0.5,1.6-0.3,4.6-0.7,6.7c-1,3.3-0.5,4.6-1.3,6.5c0.2,1.5-0.3,2.4-0.4,4.1c-1.1,2.6-1.5,6-2.3,9.2
		c-0.7,2.4-0.3,6.1-0.8,9.3c0.5,4.1-2.7,7.2-3.4,10.7c0,1.6-1,4.2-0.5,5.8c0,1.4,0.8,2.7-0.2,4.1c-0.5,1-1.1,1.4-1.7,2
		c-2,1.4-2.8,2.4-4.2,4c1.5,2,4,2.6,6.1,3c0.4,0.4,1.8,0.2,2.1,0.3c0.5,0.7,0.4,0.1,1.9,0.2c2.2,0,5,0.4,7.8,0.5
		c2.8,0,4.8-0.3,7.8-0.4c1.7-0.4,3.1-0.6,6.5-1.1c2.3-0.4,3.6-1.2,6.3-1.8c-2.2-0.8-5.3-0.4-7.3-2.3c-1.9,0.2-5-2.3-6.8-3.4
		c-1.1-1.8-2.5-1.7-4.5-3.1c-2.5-1.5-4.7-3.4-6.1-7.1c-1.4-3.2-2.2-6-2.8-9.4c-1.3-3.4-0.3-7.1,0.3-9.6c0.9-3.7,2-6.3,4.8-8.1
		c0.2-1.5-0.8-2.2,0.1-3.2c0.5-0.5,1.4-1.3,2.1-2.3c-0.5-2,0.6-3.2,1.9-5.3c1.6-1.5,1.7-2.8,2.7-3.3c0.4,0.7,0.3-0.3,0.3-0.5
		c-0.2-0.4,0.2-0.4-0.4-1.1c-1.7-1.8,1-2.5,2.1-3.6c0.1-0.1,1-2.3,1.3-2c1.4-1.4,3.8-2.5,6.1-1.8c2.8-0.2,6,2,8.5,3.4
		c0.3,1-1.6,2.2-1.8,4.1"/>
</g>
<g id="Layer_9">
	<path class="st21" d="M26,70.5c-1.1,0.4-2.2-1.1-2.8-0.1c-0.5-0.5-1.4,0.2-0.7,0.6c-0.4,1.3-0.5,0.9,0,0.9c0.5,0.6,0.4,0.1,0.9,0.5
		c-0.1-0.2,1.2,0.1,1-0.2c1.6-0.6,2.4-1.5,4.5-1.6C26.4,70.1,27.2,71.4,26,70.5z"/>
	<path class="st21" d="M22.4,75c3.4-0.6,6.6,0.6,9.5,0.3"/>
	<path class="st21" d="M22.3,78.9c2.4,0.3,6.8,0.8,10.4,1"/>
	<path class="st21" d="M22.2,83.3c3.5-1.3,7.5,0.3,11.8,1.1c-0.6,0.4-1.3,0.2-0.4,0"/>
	<path class="st21" d="M22.5,87.4c0.5-0.3,1.1-0.2,0.5-0.3c0.1,0.3,0.3-0.1,0.9-0.2c2.8-0.9,7.1,0.3,10.3,1.3c0.1,0.5,0,0.2-0.6,0.3
		"/>
	<path class="st21" d="M22.9,90.9c3.6-0.8,7.8,0.1,11.7,1.5c-0.4,1.1-0.4-0.5-0.7,0.2"/>
	<path class="st21" d="M23.2,95c1.4-0.4,3.8-0.9,6.2-0.6c1.8,0.6,3.4,0.7,6,1.7c-0.1,0.1-0.6,0.1-0.7,0"/>
	<path class="st21" d="M23.7,98.7c0.3,0.3,1.2-0.8,1.3-0.5c2.2-0.8,3.5-0.4,5.6-0.2c1.5,0.7,4,1.6,5.3,2.1c-0.4,0.6-1,0.1-0.5,0"/>
	<path class="st21" d="M23.9,102.9c1.5-1.8,4-2.2,5.9-1.5c0.3-0.1,1.4-0.3,1.8,0.1c1.4,0.6,2.5,1.5,4.4,2.5"/>
	<path class="st21" d="M24.3,106.4c0.5-0.6,0.5-0.8,1.5-1.1c0.7-0.1,2.1,0.1,2.5-0.4c1.2-0.1,1.2-0.3,2.1,0c1.9,0.7,4,2.2,5.7,3"/>
	<path class="st21" d="M24.1,109.3c0.5-0.9,1.8-1.4,3.3-1.6c0.3,0.1,0.5,0.1,1,0.2c3,1,5.3,1.3,7.6,3.6"/>
	<path class="st21" d="M23.7,113.4c0.7-1.8,2.1-0.9,3.7-1.8c4.1-0.1,7,1.2,8.5,3.1"/>
	<path class="st21" d="M24.9,114.9c1.4-1.8,2.1,0,4.7-0.1c1,0.2,0.7,0.7,2.4,0.8c2.1,0,2.2,0.4,3.4,2.4"/>
	<path class="st21" d="M25.4,117.4c0.3,0.4,0.9,0,1.4-0.1c1.3,0.1,1.9,0.4,3,0.6c1.2,0.9,3.5,3,5.3,2.8c-1,0,0.7-0.2-0.4,0.1"/>
	<path class="st21" d="M22.7,124.4c1-1.9,3.6-1.6,4.5-1.3c1-0.6,1.4,0.5,1.9,0.4c0.8,0.4,2.1,0.8,2.4,0.9c0.7-0.5,1.7,1.2,2.8,1.3"
		/>
	<path class="st21" d="M24.9,125.6c1.5-0.7,3.2-0.1,4,0.1c1.6,0.6,3.1,2.8,4.8,4"/>
	<path class="st21" d="M24.4,128.5c1.9,0.3,3.5-0.2,4,0c0.6,0,1.2,1.4,1.5,0.9c0.9,0.4,2.4,2.3,3.3,2.3c0.3-0.3-0.4,0.2-0.2,0.2"/>
	<path class="st21" d="M18.1,142c1.9-0.7,4.1-0.7,6.2-1.1c2-0.5,4.1,0.3,5.8,2.4"/>
	<path class="st21" d="M17.5,143.4c1.9-0.9,2.6-1.1,3.5-1.2c0.8,0.2,1.6-0.1,3.2,0c0.2,0.5,1.5,0.4,1.9,0.6c1-0.1,3,1,4.3,1.9"/>
	<path class="st21" d="M17.1,145.2c2.7-2.2,5.4-1,8-0.9c0.4-0.7,1.5,1.1,1.9,0.9c0.5,0.3,2.4,1.2,3.1,1.5"/>
	<path class="st21" d="M18.6,148.1c1.1-0.4,1.3-0.3,2.3-0.2c1.8,0.4,4.4,0.3,6,1.6c0.6,0.6,1.1,0.9,1.4,1.5c-0.1,0.7,1.4,1.6,1,1.9
		c-0.1,0,0.4,0.5,0.1,1.3"/>
	<path class="st21" d="M39.9,124.2c-0.2,1.2,0,0.7-0.1,0.1c0-0.1-0.1-0.2,0.1-0.2c0.6-0.6,1.4-0.3,2.5-0.4c1.2,0.5,2,0.9,2.3,1.1
		c2,1.2,3.9,2.7,4.6,4.8c0.8,0.1-0.8,0,0.4,0"/>
	<path class="st21" d="M43,119.1c-0.3-0.6-0.3,0.6,0.4,0c0.6,1,0.4,1.1,2.1,1.9c2.7,1.7,5.4,3.3,7,5.7"/>
	<path class="st21" d="M46,113.4c-0.4,0.7-0.5,1.8-0.2,2.4c1-0.1,0.6,1.2,2,1.7c1.8,1,4.8,1,5.5,3.2c1.6,0.8,0.9-0.2,0.8,0.7"/>
	<path class="st21" d="M38.3,128.1c2.7-0.9,4.7,0,5.8,0.9c0.6,1,2.9,3.2,3.4,4.9c1.3,0.6,0.7-0.9,0.4-0.1"/>
	<path class="st21" d="M36.4,131.8c1.7,0.4,3.9-0.8,5.6,0c1.3,1.3,1.8,0.3,2.2,1.1c-0.1,0.2,1.5,1.7,0.8,1.2c1,1.9,1.7,2.4,0.7,4"/>
	<path class="st21" d="M38.5,134.2c0.5-0.1,0.8,1.6,1.6,0.4c1-1.3,0.2-0.6,1.4,0.4c1.8,0.9,2.8,2.3,2.9,4.9"/>
	<path class="st21" d="M38.7,166.2c-0.3-0.4-0.4-0.4-0.2-1.3c-0.1-1.6,0-2.2,0.8-3.7c0.9-1.4,2.4-2.9,4.2-3.6
		c2.1-0.5,3.7-0.9,5.6-1.1c0.1-0.4-0.7-0.9-0.6,0.3"/>
	<path class="st21" d="M40.3,167.4c0.2-0.5-0.4-2.4,0.3-3.7c-0.3-0.5,0.2-1.5,1-2c-0.1,0.1,0.6-0.5,1.3-0.8c0.7-0.6,1.9-0.8,1.3-1.1
		c-0.1,0.3,1-0.7,1.8-0.8c1.1-0.4,2.8-0.2,4.5-0.7"/>
	<path class="st21" d="M43.4,169c0.3-2.6,0.1-4.4,1.6-5.7c0.7-0.1,0.8-0.8,2.3-1.7c1.6-1.3,4.5-1.7,4.8-1.9c0.4,0-0.9,0.4-0.4,0.4"
		/>
	<path class="st21" d="M46,171.6c-0.1-0.9,0.1-2.6,0.4-3.4c0.5-0.2,0.7-2,0.6-1.9c0.4-0.8,1.8-3.3,3.1-3.3c1.1-0.9,3.2-0.3,4.4-1.4"
		/>
	<path class="st21" d="M50.2,173.2c-0.7-1.9-0.2-3.6,0.1-5c0.4-1.9,0.7-3.3,2.5-4.2c0.8,0.1,0.7-0.8,1.7-0.8
		c1.1-1.2,2.7-0.3,3.8-1.1c0.7,0.3,0.6,0.1-0.3,0.2"/>
	<path class="st21" d="M52.8,174.1c0.1-0.9,0-3.4,0.5-4.3c-0.5-1.2,0.4-1.5,1.4-3.1c0.9-2.6,1.8-2.1,4.1-2.6
		c2.2-0.7,3.1-0.3,4.8-0.6c0-0.4-0.6,0.3-0.5,0"/>
	<path class="st21" d="M55.9,175.4c-0.7-0.5,0.1-1.9,0.1-2.8c0.4-0.1,0.8-1.8,0.7-2.4c0.3-0.8,0.2,0.2,0.5-1.1
		c0.9-0.6,0.8-0.5,1.1-1c2-1.8,4.4-3.8,7.4-3.3c-0.2,0.3-0.3-0.2-0.7,0.6"/>
	<path class="st21" d="M57.9,176c0-2.4,1.4-5.8,3.7-7.7c2-2.3,4.5-1.5,6.9-1.6"/>
	<path class="st21" d="M60.2,176.1c1.3-0.7,0.8-1.5,1.1-2.4c0.2-1.5,0.6-2.8,1.7-2.6c0.8-0.7,1.6-0.4,2.4-1.3
		c2.6-0.9,3.7-0.4,6.5-0.5c0.2,0.2,0.1-0.3-0.2,0.3"/>
	<path class="st21" d="M65.1,173.3c1.4-0.8,3.4-1.3,6.1-1.3c1.8,0,2.5,1.6,3.6,2.7c0.5,1,1.8,2.5,2.3,4"/>
	<path class="st21" d="M67.1,178.5c0.7,0.9,1.7,2.1,2.2,4c0,0.8,0,0.6,0.3,1.4c-0.4,1-0.7,2.6-2.3,4c-0.4-2.1,0.2-3.7-0.4-6.3
		c-0.1-0.5-0.2-1.2-1.2-2.1c-0.9,0.4-2.1-1.2-1.9-1.8C63.4,175.1,66.9,177.8,67.1,178.5z"/>
	<path class="st21" d="M62.4,183.5c1,1.5,0.6,3.3,0.3,5.5c-0.3,2.2-2.5,3.7-4.2,3.1c0.6-1,0.2-2.4,0.7-3.8c0.2-1.7-0.2-3.3,0-4.2
		c-0.1-1.7-0.1-2.6-0.7-3.4c-0.1,0.1-1.2-1.3-0.3-1.6c-0.7-0.2,0.1,0.9,1.6,0.8C61.9,179.7,61.9,182,62.4,183.5z"/>
	<path class="st21" d="M53.9,185.8c0.1,0.6,0.1,2-0.6,2.4c-0.2,0.3,0.2,1.4-0.3,2.3c-0.4,1.1-0.7,1.9-1.7,3.3
		c-0.2,0.4-0.3,0.2-0.5,0.5c-0.4,0-0.4,0.3-1.4,0.1c0-0.3-0.7-0.2-0.9-0.5c-0.2-0.5,0.2-0.4-0.1-0.9c0.2-2.1,1.2-4.8,2-6.9
		c1.5-0.8,0.7-3.9,2-4.8C54.6,181.8,55.2,185.3,53.9,185.8z"/>
	<path class="st21" d="M44.2,186.6c-0.2,0.6-0.4,1.4-0.4,1.7c-0.1,1.5,0,3.1-0.8,4.8c0,1.1-0.2,1.1-0.5,1.5c-0.3,0.6-0.6,1-1.3,0.7
		c-0.2,0.1-0.1,0.2-0.3-0.1c0.4,0,0.2,0.4-0.2-0.4c-0.2-1.7,0.2-4.6,0.9-6.6c0.2-1.4,0.7-4.2,1.7-4.7
		C44.5,182.3,44.1,186.1,44.2,186.6z"/>
	<path class="st21" d="M34.4,188.2c-0.3,1,0.1,1.1,0.1,2.1c0,1.2,0.4,2.6-0.4,3.8c-0.8-1.5-0.8-3.3-0.8-5c0.4-1.6,1-3.2,2.2-4.7
		C34.8,185.5,34.4,186.5,34.4,188.2z"/>
	<path class="st21" d="M30.6,180c-0.9,0.3-1.8,2.2-2.9,3.3c-0.9,1.7-0.7,3.7-1.2,4.3c-0.1,0.9,0,1.6-0.5,2.6
		c-0.1,1.6-0.6,2.2-0.3,4.1c-0.3,0.3-1.3-0.1-1.3-0.4c-0.2-0.4-0.8-0.7-0.6-1.3c-1-2.4,0.2-4.2,0.9-6.1c1.7-1.5,1.9-3.3,4.1-4.8"/>
	<path class="st21" d="M21.4,182.4c-1.4,1.1-1.4,2-2.1,3.5c-0.4,1-0.7,2.1-0.4,2.9c0.4,1.6-0.1,3.2,0,4.5c-0.5,0.4-1.5-0.4-2.1-1.1
		c-0.7-1.3-0.2-1.8-0.4-2.4c0.8-2.1,0.8-4.4,2.5-5.7c1-0.7,2.3-2,3.6-3.2C22.4,181.8,22.3,181.5,21.4,182.4z"/>
	<path class="st21" d="M14.1,183.5c0.2-1.1,1.3-1.3,2-2.5c1.5-1.4,2.4-2.8,4.9-4c-1.9,0.7-4.1,2-5.5,3.6c-1.5,1.5-3.3,3.5-3.7,5.4
		c-0.7,1-0.8,1.7-0.3,2.8c0.5,0.5,0.5,0.7,1.3,0.4c0.6-0.6-0.3-2.1,0.2-2.8C13.8,185.2,13.1,184.8,14.1,183.5z"/>
	<path class="st21" d="M7,185.2c0.1-0.9,0.3-0.8,0.5-1.7c0.3-1.4,0.4-2.4,1.9-3.4c0.4-0.8,1.8-1.3,2.5-2c1.6-1.1,3.2-2.5,6.3-2.3
		c-3-0.3-5.1,1.4-7.1,2.8c-0.7,0.7-2.4,1.7-2.9,2.3c-1.6,1.1-1.8,2.4-1.7,4c0.2,0.6,0.1,1.9,0.8,1.6C7,185.9,6.6,185.4,7,185.2z"/>
	<path class="st21" d="M15.1,152.4c2-1.7,6-1.9,7.9-1.6c0.9,0,1,0.2,2.3,0.5c1.6,0.6,1.9,2.4,3.1,3.5c0.1,0.1,0.1,0.4,0.7,0.2"/>
	<path class="st21" d="M14.8,154c2.3-1.7,5.2-1.7,7.8-1.5c0.5-0.5,1,0.2,1.7,0.5c1.8,1.1,2,2.8,3.7,3.8"/>
	<path class="st21" d="M13.5,155.9c1.7-1.1,4-2.3,6.5-2.2c2.6,0.4,5.8,2.4,7.4,4.5"/>
	<path class="st21" d="M12.9,157.8c1.8-1.3,4.2-2.7,6.4-2.2c1.8,0.5,4.8,1.6,5.8,3.6c0.8,0.1,0.7,1.6,1.4,2.6c0.1,0,0.4,0.2,0.4,0.1
		"/>
	<path class="st21" d="M14.4,158c2.5-1.2,5.1-0.5,7.4,0.8c1.7,0.6,4,3.4,4.8,5.9c0.6-0.8,0.8-0.5,0.5-0.2"/>
	<path class="st21" d="M22.7,172.3c0.3-1.6-0.2-2.5-0.4-4c-0.3-0.8-1.5-1.6-2.2-2.3c-2.1-1-5.1-2-7.6-1.8c1.4-1.5,2.7-1.3,3.8-0.8
		c0.9-0.3,2.2-0.3,3.4,0.9c0.9-0.2,1.8,1.6,2.5,2.3c0.7,0.8,0.8,3,0.5,4c0.3,1.1-0.2,1.9-0.5,3.1c-0.6-0.3-0.7-0.9-1.3-1.6
		c0-0.6-0.1-0.8-0.2-1.2c-0.4-0.6-1.4-1.7-1.6-2.1c-2.9-2.1-5.4-2.6-8.3-2.8c1.5-0.6,4.2-1.3,5.8-0.3c2.4,0.5,3.8,1.2,4.3,3.8
		c-0.3,0.7,0.5,1.9,0.3,2.8c0,1.2,0.4,1.8-0.4,2.6c0.3-0.7-0.8-1.2-1.1-1.9c0.3-0.8,0-1.1-0.5-1.9c-0.9-1.7-1.7-2.7-4.3-3.4
		c-1.6,0.4-3.6,0.1-5.5,1c1.7,0.3,2.9,0.1,4-0.5c0.9,0.5,3.5,0.7,4.4,2.5c1.2,0.7,2.2,2.9,2,4.7"/>
	<path class="st21" d="M13.5,162.2c2.2-1.2,5.7-0.4,8.4,0.7c0.7,1,0.6,0.6,1.3,0.8c1.6,1.8,2.8,4.9,0.7,6.7
		c-0.3-2.1-0.2-3.3-0.5-4.7c-0.4-1.6-1.7-2-2.9-3c-1.6-0.8-2.7-1.2-4.1-1.2"/>
	<path class="st21" d="M14.8,160c2.6-0.5,4.9-0.3,7.5,1.1c2.1,1.5,3.5,4.3,3.9,6.4"/>
</g>
<g id="Layer_10">
	<path class="st21" d="M106.5,73.4c0.8,0.8,0.1,1.4,0,1.4c-0.3,0.5-0.4,1.1-0.1,0.8"/>
	<path class="st21" d="M121.7,71.7c0.5,0.2,0.3,1,0.1,1.7c-0.5-0.4-0.5-1-0.1-1c0-0.7,0.3-0.6,0.3-0.7c0.4,0.1,0.2-0.1,0.7,0.1
		c-0.2-0.4-0.1,0.8-0.1,0.6c0.2,0.3-0.7,0.3-0.6,0.3c0.5-0.3,1.2,0.1,0.9,0c0.6-0.4,0.2,0,0.2,0.8c-0.3,0.6-0.3,0-0.5,0.1
		c-0.4,0.4-1.5,0-2-0.1c-0.1-0.6,0,0,0,0.1c0.2-0.1,0-0.4,0.1-0.3c-0.3-0.5-0.8-1.2-1-1.8c0,0.4-1,0.7-0.8,1.7"/>
	<path class="st21" d="M124.8,71.9c-0.8-0.2-0.9,0-1.3,0.8c0.1,0.6,0.8,0.7,1.4,0.6c-0.3,0.2-0.2-0.1,0.1-0.2c0.6-0.2-0.9-0.3-0.1,0
		"/>
	<path class="st22" d="M121.2,74.3c0.2-0.4,0.9-0.5,0.6-0.5c-0.1-0.2,1,0.6,0.6,0.5c-0.1,0.2-0.2,0.5-1,1.1c0.5-0.5,1.5,0.2,2.2-0.4
		"/>
	<path class="st21" d="M134.9,71.7c0.4,0.7-0.3,1.2,0.1,1.8c0.4,0.1,1.3-0.6,1.3-0.7c-0.1-1.2-1.2-0.9-1.2-0.9"/>
	<path class="st22" d="M138.8,72c0.3,0-0.5-0.3-0.9-0.2c-0.6-0.2-0.2,0.5-0.9,0.5c0,0.3-0.4,0.8-0.1,1.1c0,0.1,1-0.7,1.5,0"/>
	<path class="st21" d="M137.1,72.6c0.5,0,0.4-0.2,0.8,0.1"/>
	<path class="st22" d="M140.4,71.9c-0.2,0.1,0.1-0.3-0.9,0c0.4,0.6,0.5,1.2,0,1.5"/>
	<path class="st21" d="M139.5,72.7c0.1-0.4,0.9,0.5,0.9,0"/>
	<path class="st22" d="M136.9,74.1c0.5,0.5,1.6,0,1.3-0.2c0.7,0.5,0.8,0.4-0.1,0.7c0.1,0.4,1,0.9,0.3,0.9c0,0.3-0.9,0.5-1.1-0.1"/>
	<path class="st21" d="M104.3,80.2c-0.2-0.3-1.1,0.6-1.2,0.5c-0.8,0.5,0.4,0.9,0.4,1.1c0.8,0.4,1.2-0.2,1-0.6c0-0.9-0.7,0.2-0.4,0"
		/>
	<path class="st22" d="M105.7,82c-0.1-0.6,0.4-0.6,0-1.2C105.8,82.4,106.1,81.9,105.7,82z"/>
	<path class="st22" d="M107.1,80.6c-0.9,1-0.3,1.5,0.1,1.6"/>
</g>
</svg>
