<?xml version="1.0" encoding="utf-8"?>
<!-- Generator: Adobe Illustrator 23.0.1, SVG Export Plug-In . SVG Version: 6.00 Build 0)  -->
<svg version="1.1" xmlns="http://www.w3.org/2000/svg" xmlns:xlink="http://www.w3.org/1999/xlink" x="0px" y="0px"
	 viewBox="0 0 320 363" style="enable-background:new 0 0 320 363;" xml:space="preserve">
<style type="text/css">
	.st0{fill:#87FF80;}
	.st1{fill:#FF582B;}
	.st2{fill:#A3F8FF;}
	.st3{display:none;}
	.st4{fill:none;stroke:#000000;stroke-miterlimit:10;}
	.st5{fill:none;stroke:#000000;stroke-width:0.5;stroke-miterlimit:10;}
	.st6{fill:none;stroke:#000000;stroke-width:0.75;stroke-miterlimit:10;}
</style>
<g id="Layer_3">
	<circle class="st0" cx="201.6" cy="152.8" r="44.5"/>
</g>
<g id="Layer_2">
	<circle class="st1" cx="93.6" cy="105.3" r="91.4"/>
</g>
<g id="Layer_4">
	<circle class="st2" cx="135.3" cy="238.4" r="82.9"/>
</g>
<g id="Layer_1">
	<g class="st3">
		
			<image style="display:inline;overflow:visible;enable-background:new    ;" width="3024" height="4032" xlink:href="../../../Downloads/IMG_5588.jpg"  transform="matrix(8.994709e-02 0 0 8.994709e-02 -28 44)">
		</image>
	</g>
	<g>
		<path class="st4" d="M241.2,268.2c-0.5,0.1-3.4,3.5-6.2,7.4c-1.6,2.3-4,4.8-5.6,5.6c-2.1,2.2-3.4,3.7-4.5,4.4
			c-2.1,0.6-4.5,1.9-7.1,3.9c-2.5,2.2-5.7,4.2-7.7,6c-2.9,2-5.2,4.1-7,5.5s-2.9,2.3-3.1,2.1c-0.3,0.6-6.1,5.8-12,11.4
			c-6,5.5-12,11-12,11s-14,14-20,12c-3-1-6.3-2.8-8.2-4.3c-3.4-1.2-4.5-3.1-5-3.2c0.7,0.3-1.5-4.1-2.8-9.7c-2.3-4.8-4-10.1-3.6-10
			c-0.3,0.2-1.7-3-3.6-6.9c-0.7-3.3-1.8-6.8-1.8-7.2c-1.4,0.5-3.2-0.6-5-1.1c-0.1-0.2,0-0.2-0.4-0.1c-3.3-0.3-6-0.8-8.8-2.9
			c-2.5-0.3-5.1-1.8-7.5-3.8c-1.8-1.6-4.2-3.3-6-5c-1.9-2.1-3.3-5.1-5.2-6.2c0.4-0.5-1.3-4.7-3.2-9.3c-2.2-2.8-4.4-5.3-6-8.4
			c-1-3.6-3.2-7.5-4.9-11.1c-1.9-3.3-3.7-6.5-6-10.1c-1.9-4.2-4-7.1-4.8-10.8c-1.9-4.2-3.6-6-4.8-8.4c-1.3-2.6-2.6-4.7-3.3-6.4
			c0.7,0.1-3.1-9.4-3-9.1c-1-4-2.3-6.7-2.5-9.4c-0.7-2.7-1-4.5-1-6.3c-0.4-3-0.3-5.7,0.1-8.8c-0.3-0.2-0.2-0.1-0.5-0.1
			c0.5,0.3-0.1-0.1,0.1,0.3c1.2-3.4,1.8-6.5,1.7-10.3c0.2-3.8-0.1-6.7-0.6-10c-0.5,0-0.8-2.7-0.6-3c-1.1-3.6-1.5-7.7-1.7-11.5
			c-0.4-4.7-1.3-7.5-2.1-11.9c1-3.1,1.3-5.3,2-8.4c0.6-2.8,1.1-5.9,1.3-8.1c0.3-2.5,0.8-3.6,1.7-4.7c0.3-3.6,0.4-5.8,1.1-8
			c0.1,0.2-1.2-4.5-2.9-10c-1.4-5.7-2.1-9.6-2.2-9.3c0-0.7,0.8-4.6,1-6.2c0.5-3.7,1.4-7.6,0.7-7.5c0.9-2.8,2.1-5.2,3.8-6.5
			c0.6-1,2.3-3.2,5.1-6.3c1.8-2.4,3.7-5.4,4.2-5.3c2.5-2.6,4.9-4.9,8.2-7.1c2.6-1.2,5.8-1.6,9.5-2.9c0.2,0.3,1.1-0.1,3.8-0.7
			c2-0.5,5.7-0.8,9.4-0.9c3.5-1.1,7.1-1.7,11.2-2.2c4.1-0.8,8.1-0.9,11.5-1.1c3.4-0.8,6.9-0.9,9.4-1.5c2.3-0.2,3.6-0.5,3.6-1
			c0,0.2,5.9,0.2,14.4,1.1c7.5,0.5,17.7,1.3,25.8,1.5c4.2,0.4,7.8,0.7,10,0.9c2.8,0.3,4.4,0.3,4.2,0.4c4.5-0.1,8,0.6,11.8,2.5
			c3.7,1.1,6.7,2.7,10.1,5.1c-0.1,0,3.1,3.1,6.8,4.7c3,2.8,6.4,5.1,6.1,5c3.8,2.7,7.2,6.2,9.4,10c2.8,3.3,4.9,7.9,6.2,12.3
			c1.4,4.1,2.1,8.6,2.6,13.5c-0.2,0-0.4,4.4-0.5,11.8c0.1,3.3,0.1,7,0.1,10.8c0,3.7,0.1,7.6,0,11c0,6.1,0.6,11,0.2,11.5
			c-0.2-0.1,6.1,8.5,6.5,9.4c2.3,2.6,4.1,5.5,4.3,9.3c0.5,0.3,0.9,2,0.2,1.7c1,3.6,0.5,8-0.1,11.9c-1.3,2.8-3.3,6.2-6,9.3
			c-0.3-0.1-2,2.1-2,2.5c-0.2-0.3-2.6,3.1-5.4,6.7c-1.9,4.3-4.1,7.6-4.4,7.9c-3,1.2-6.4,6.4-7.6,6.7c0.3-1.5-0.7-1.3,1.2-0.1
			c-1.8,1.3-3.1,3-3.6,4.7c-0.8,1.6-1.1,3.7-0.7,6c0.2-1,0.7,4.2,1.3,9.2c0.4,3.8,1.4,8,0.6,9.3c1.3,2.4,1.2,4.8,2.6,8.5
			c-0.1-0.9,0.5,2.4,1.4,5.6c0.8,3.1,1,5.4,1,6.1c0.6,2,0.5,4.2,1.7,6.2C236.2,257.4,240.5,268.6,241.2,268.2z"/>
		<path class="st5" d="M82.4,132.3c-0.1-0.8-1.5-4.6-3.7-8.1c-0.6-2.7-2.5-4.8-4.1-5.6c-0.5-2.1-2.9-3.1-4.7-3.7
			c-4.7-2.4-11.3,0.9-11.5,1c0.3-0.1-1.2,2.3-2.6,5.2c-0.7,2-2.2,5.4-2.9,6.9c-0.3,2.6,2.3,4.1,2.5,4.8c-0.1-0.3,2.1-6.5,6.3-9.1
			c1.4-0.4,3.5-0.8,5.4,0.2c2.3,0.3,4.4,1.6,7.1,2.9C78.4,129.8,82,131.8,82.4,132.3z"/>
		<path class="st6" d="M88.4,235.9c0.3-0.8,0.9-6.5,4.1-10.7c2.8-3.9,5.1-5.3,8.5-5.8c4.2,0.3,6.8-2,6.7-1.7c0-0.5,4.2-3,5-3.8
			c1-0.3,7.7-6.3,8.1-6.3c0.4-0.6,8.5-3.1,8.7-1.7c0.3-0.8,11.5,4.1,10.6,3.9c0.5-0.7,5.2,2.6,5.1,2.7c0.1-0.3-4,10.4-4.2,10.2
			c-0.3,0.1-2.5,2.9-5.4,7.1c-1.7,3.3-5.3,6.2-4.7,6.7c-0.6-0.9-0.7,2-2.1,4.9c-1.3,2.3-3.5,5.8-6.7,6.8c-3.1,1.6-6.7,1.1-10.6,0.7
			c-3.2-0.4-5.6-0.2-6-0.7c0.3,0.2-2.7-1.3-5.4-3.1c-2.5-2.3-5.2-4.2-5.1-3.8c-0.2,0.2-2-1.3-3.7-2.9
			C89.9,236.8,88.3,235.4,88.4,235.9z"/>
		<path class="st6" d="M140.9,222.7c-0.5-0.5-3.7,1.3-7.6,3.9c-2.2,2-4.2,3-6.4,4.6c-2,1.5-3.8,2.4-4.2,3.1c-0.2,1-4.5,1.9-6.5,2.2
			c-3.3,0.8-6.1,1.3-8.5,1.6c0.2,0.3-6.1-2.7-6.4-2.2c-0.3-0.6-8.9,0.6-8.9,0.1c-0.2,0.4,5.4-3.8,5.3-3.6c0.1-0.1,3.8-4.9,3.6-5
			c0.1-0.3,4.9-5.3,5.3-5.8c0,1.3,6.4-2.2,6.7-1.8c1.3-1.2,2.1-2.3,4.2-4.2c1.8-1.8,5.3-4.3,10.6-5.2c0.8-0.1,3-0.5,6.5-0.1
			c2.2,0.2,4.3-0.1,5.7-0.8"/>
		<path class="st4" d="M201.8,137.4c-1.6,0.2-3.8-0.3-6-0.6c-2.5-0.5-4.4,0.1-6.1-1.2c-4.4,0-7.5-0.6-7.7-0.8
			c-0.1,0.3-3.6-0.4-6.7-1.3c-3.9-0.3-6.8-0.7-6.9-1c-0.2-0.4-8.7,2.2-9.4,1.9c0-0.5,0.9,2.9,1.2,6.6c0.6,2.1,1,4.3,1,6.9
			c0.1,1.8,0.1,4,0,6.2c0.2,3.9-2.4,7.7-5.2,9.6c-2.2,2.4-4.8,4-4.5,3.5c-0.3,0.1-4.2,2-9.4,3.6c-2.5,0.5-4.4,2-6.8,2.1
			c-2.8,0.6-4.6,1.4-6.1,1.9c-2.4,0.3-6.7,0.4-10.9,0.3c-2.3,0.2-4.5-0.6-6.5-1.4c-1.7-0.7-3.9-1.8-5.3-2c-2.1-2-3-3.6-4.3-5.2
			c-1.2-2.5-2.7-4.4-4.2-7c-2.3-4.2-3.4-8-4.1-7.6c-1.8-0.4-4.7-3-5.6-2.4c-1.2,0.3-2.9,1.9-3.1,5c0.2,1.8-0.7,5.1-0.6,8
			c-0.4,3.5-1.5,5.6-2.2,8.5c-0.4,2.1-0.9,4-2.4,6.5c-0.4,1.7-1.7,3.4-3.6,4.3c-1.9,0.4-5.1,2-7.8,2.9c-2.8,0.3-5.6,1.2-6.4,1.8
			c-2.1,1.2-4.8,1.2-7.1,1c-2.3,0.1-4.9,0.5-8-0.8c-2.2-0.7-4.7-4.7-8-7.7c-1.5-3.7-4-6.9-3.6-6.6c-0.1,0.2-2.3-9.6-1.8-9.7
			c0,0.2-4.3-1.5-4.1-1.5c-0.2,0.2,0-7.5,0-7.4c0.1,0.2,1.3-2.1,4.5-4.4c1.6-1.2,3.3-2.4,5.4-3.8c2-0.8,3.9-2.3,6.6-2.7
			c2.9-0.7,5.2-1.5,7.9-2.2c2.4-0.2,4.6-0.4,6.3-1.1c4.7-0.1,8.1,0.3,10.6,0.4c2.2,0.4,5,1.2,8.9,1.3c3.6,1,5.9,0.2,8.8-1.5
			c1.6,0,2.6-1.9,4.9-2.9c1.4-0.6,3.8-2.5,6.5-3.4c2-1.4,4.7-2.8,6.9-3c3.3-1.3,5.1-2,7.8-3.2c3.1-1.1,6.6-1.8,10.6-2.8
			c2.4-0.6,4.4-1.2,6.7-1.6c2.1-0.3,4.5-0.9,6.5-0.7c1.5-0.6,4.1-0.9,6.1-0.7c2.5,0.4,4.8-0.1,7.1-0.2c6.6,1.7,9.9,2.1,11.6,2.5
			c2,0.2,2.4,0,2.2,0.1"/>
		<path class="st4" d="M200.1,126.8c2.4,0.4,5.9,0.9,8.9,1.5c2.1,0.2,4.6,1.1,6.1,2.4c3.4,1.8,6.3,3.5,9,5.6
			c1.8,1.6,3.3,3.6,3.7,3.4c-0.2-0.2-7.6,1.7-11-0.6c-2.9-2.7-9.2-4-11-2.7c-0.3,1.4-2.1,0.9-3.8,0.8"/>
		<path class="st4" d="M165,123.8c0.7-0.3,2-0.2,5-0.8c2.3,1.3,5.7,1,9.5,1.8c3.4,0.3,7.1,0.5,9.8,0.6c2.4-0.1,3.8,0.7,4,0.2
			c0.4,0.2,3.5,1,7,1.3"/>
		<path class="st4" d="M35.1,154.2c1.5,0,1.8-1.4,3.8-3.1c2.6-1.9,5.1-3.6,10.3-5c2.3-0.7,5.6-1.1,6.8-1.6c2.8-0.4,4.8-0.3,7-0.6
			c3.5-0.4,7.1-0.4,9.8,0.6c6.1,0.7,6,0.9,7.9,3.3c1.1,1,0.9,5.8,1.3,10.2c-0.8,4.8-1.1,9.3-1,9.5c-0.6-0.4-0.8,2.6-2.6,5.7
			c-1.4,2.5-3.5,6.8-6.7,7.6c-2.3,0.7-6.3,2.1-10.1,3.2c-3.7,0.2-6.4,0.9-6.7,1c0.2,0.2-1.8,0.1-5-0.2c-2.9-0.1-5.9-0.7-7.3-1.7
			c-1.6-2.5-3.1-5.2-4.4-8.8c-1.1-3.5-2.4-6.9-2.7-8.2C33.8,162.3,34.9,154.5,35.1,154.2z"/>
		<path class="st4" d="M96.3,143.7c-0.6,0-0.1-4.5,4.7-6c2-2.1,3.4-3.4,6.9-5.3c1.9-0.6,4.2-1.9,8-3c1.1-0.4,3.5-1.3,5.2-1.6
			c2.3-0.5,4.9-1,7.8-1.3c3-0.8,5.6-1,7.4-1.6c2.2-0.4,4.5-0.5,5.9-0.7c3.8,0.4,6.2,1,7.9,1.7c3.3,0.5,3.9,1.8,3.5,2.4
			c0.3,0.1,1.8,2.1,3.2,7.6c0.6,1.4,1.2,5.1,1.3,7.7c0,3.4,0.2,7.5,0.1,11c0,2.3-1.3,4.5-3.6,6.3c-1.5,1.8-3.9,3.3-7.1,5.1
			c-3,0.9-6,1.9-8.9,2.8c-3.3,1.1-6.1,1.7-8.7,1.8c-6,0.8-9.4,0.9-9.5,0.5c-0.1,0.2-2.2,0.9-5.7-0.6c-2-0.3-3.3-1.5-5.5-3
			c-1.6-2-3.8-3.2-6.2-5.7c-2.7-2.6-4.3-5.2-5.1-7.2c-0.9-2.1-1.3-4.2-2.1-6C95,145.3,96.3,144,96.3,143.7z"/>
		<path class="st5" d="M108,136.3c-0.2,0.4-2.6-1.1-5.5-3.6c-2.1-1.5-4.8-4.2-4-6c0.4-0.8,0.9-2,4.4-3.3c1.4-1.1,4.4-2.2,7.7-3.9
			c3.5-1.2,7.5-1.8,11.1-2.5c3.7-0.6,7.5-1.2,10.5-1.2c3-0.4,5.8,0,8.4,0.4c2.5,0,4.5,0.6,6.6,1.1c3.8,1,7.2,2.6,11.2,4.2
			c7.4,1.8,7,6.4,7.4,7.2c0.2-0.2-3.5,5.7-6.7,2.8c-2.1-2-7-3.1-11.9-3.9c-4.2-0.8-8.4-1.1-8.7-1.2c-0.2-0.4-4.5,0.1-11.3,1.3
			c-2.7,0.6-6.1,1.7-10.3,3.2C113.8,132.8,110.8,134.6,108,136.3z"/>
		<path class="st5" d="M139.2,154.5"/>
		<path class="st5" d="M138.3,155.2c0.2,0.5-2.6,0.3-7.6-0.1c-2.9-0.7-5.9-0.9-8.9-1.5c-3.5-0.7-7.4-1.8-11.3-2.5
			c-0.3-0.6,2.5,1,5.4,3c3.5,1.5,7.3,3.4,11.3,3.9"/>
		<path class="st5" d="M149.7,150.7c0.3,0.4-2.7,0.4-5.9,1.5c-2.7-0.4-5.3,0.4-8.1,0.6c-2.8,0.5-6.2,1-9.7,1.4"/>
		<path class="st5" d="M114.5,148.2c0.3,0.3,2.1-0.8,4-1c2.4-0.7,5.2-1.2,8-2c3.2-1,4.6-1.5,6.9-2.1c1.4-0.6,3.2-1,7.6-0.9
			c7.7-0.3,10.6,1.3,10.6,1c0.2,0,1.9,0.6,9.1,0.4"/>
		<path class="st5" d="M155.8,145.2c0,0.1-5.4-1.2-7.5,0c-3.1,1.1-2,4.6-7.4,5.4c-5.6,0.6-11.7-0.6-11.9,0
			c-0.4,0.9-4.7,0.1-11.5,0.4"/>
		<path class="st5" d="M151.6,136.4c-0.9,0.1-3.9-1.1-7.7-1.7c-3.8-1-7.4-1.3-9.5-0.1c-2,1.1-4.4,1.5-6.7,1.3
			c-2.8,1.2-5.2,1-6.3,0.6"/>
		<path class="st5" d="M151.4,139.7c0.1-0.1-3-1-5.3-1.3c-3.5-1.7-7-2.8-8.6-2.8c-1-0.5-3.8,0.5-6.4,1.5c-2.2,1.1-4.8,2.3-6.5,1.9
			c-4.5,0.3-4.4,0.6-8.3,2.1"/>
		<path class="st5" d="M63.6,160c-0.7,1.6,4.9,2,7.4,2.5c2.7,0.4,7-1.3,7.8-2.2c-0.3,0,0.1,0.2-0.1-0.2c0.2-0.4,0.7-0.9,2.1-1.5
			c-0.1,0-0.5-0.2-0.1,0.3c1.1-1.3,4.8-3.9,4.4-4.1c-0.1-0.3-1.3-3-8.5-4.6c-1.7,0.5-4.4,0.5-7,0.7c-1.6,1.1-3.2,1.9-4.4,3.5
			C63.7,156.3,63.1,157.5,63.6,160z"/>
		<path class="st5" d="M201.6,125.6c-1.6-0.7-2-1.9-2.3-2.6c-3.1-1.6-4.2-3.1-6.3-4.9c-1.5-1.9-2.8-4-4.3-6c-1.8-3.9-2.3-7.2-4.1-7
			c-0.4-0.4-2.4-3.5-3.4-7.3c-1.5-2.4-2.1-4.3-3.2-6.6c-0.4-1.7-1.1-3.7-0.4-5.8c0.4-3.2,1.4-7.6,2.8-10.9c0.5-4,1.6-7,2-6.8
			c-0.2,0.6-4.7-4.3-8.1-5.8c-0.5-1.2-3.6-2.3-8.5-3.2c-2.5-0.9-5.1-1.5-8.1-2c-2.9-0.5-6.1-0.9-9.7-1.4c-3.3-0.4-7-0.6-11.3-0.8
			c-2.1,0-4.6-0.3-6-0.6c-1.9,0.6-4.2,1.3-6.6,0.8c-4.2,0.5-8.8,1-11.2,0.8c-3.8,1.1-6.1,2.3-8.8,4c-2.1,1.8-4.3,2.9-5.4,4
			c-2.2,2.5-3.1,3.7-4.7,4.3c-1.9,3.8-2.2,5.3-1.5,5.2c-0.8-0.2,0.1-3.1-11.4-3.1c0.4-1.1-4.1,2.1-7.6,7.4c-1.4,1.8-3.4,4-4.8,7.3
			C67,87.2,66,89.2,65.4,92c-0.8,2.4-0.6,2.2-1.9,3.8c-0.6,0.9-0.9,2.6-2.4,8.6"/>
		<path class="st5" d="M97.1,232.4c0-0.9,0,1.3,1.4,1.7c1.2,0.9,2.5-0.6,2.4-0.6c0.4-0.7-1-6.1,0.4-6"/>
		<path class="st5" d="M105.7,223.2c-0.3,0,1,3.3,2.3,3.4c-0.6,0-0.1,2.7,0.7,4.9c0.7,0.7,0.9,3.1,1.3,2.9c-0.7-0.4-4.5,0.9-4.2,0.2
			c-0.9,0-3.7,0.6-2.8,0.1c-0.7,0.5-2.1-1.6-2.3-1.5"/>
		<path class="st5" d="M109.8,221.3"/>
		<path class="st5" d="M136.9,223.8c0.7,0.3-0.2,0.1-1.2-0.1c-0.9-1.9-0.3-3.3-0.1-3.4c-0.1-0.1,0.5,0.1,1.1-1.7
			c-0.2-1.1,1.2-2.3,1.3-2.9c0.1-1.1,3-0.1,2.8,0.2c0.5-1.3,0.9,3,1.1,4"/>
		<path class="st5" d="M131.6,215.2c0.2-0.3,1.3-0.3,2.7,3c1.1,1.9,1,2.6,1,2.1c-1,0.9,0.1,4.8-0.2,5.1c-1.2,1.3-3.4,2.1-3.6,2.3
			c-0.5,0.1-2.5-0.8-2.7-1c-0.3,0.1-2.6-1.3-2.6-1.3c0.1,0,0.3-2.3,0.7-5.3C127,217.5,128.2,215.3,131.6,215.2z"/>
		<path class="st5" d="M122.7,219.6c-0.4,0.1,5.1,3.8,3.7,7.6c-1.7,4.5-5.7,3.5-6.5,3.8c-0.3-0.2-1.7-6.9-1.1-7
			c0.9,0.9,0-3.2,2.5-3.8C122.6,219.8,122.4,219.7,122.7,219.6z"/>
		<path class="st5" d="M91.1,238.4c0.5-0.1,1.7-1.2,1.1-2"/>
		<path class="st5" d="M72.8,151.3c0.6,0.2-2.9,2.3-2.2,5.5c0.8,2.4,1.7,3.5,2,4.1"/>
		<path class="st5" d="M244.1,139.7c-1.2,0-3.3-0.1-5.2,0.7c-2.2,0.5-4.6,2.3-6.4,4.6c-2.3,2.2-2.8,6.3-3.8,10.1
			c-0.7,3.6-0.7,7.3-0.7,6.9c0.6,0.6-1.8,5-2.1,4.5c0.8,0.3-5.1-4.5-4.3-3.7c-0.3-0.4,8.9,6.4,6.4,8.6c-2.5,2.6-5.9,6.5-4.6,8.6
			c0.2,2.7,4.5-3,7.1-2.7c1.8,0.5,4.7,1.8,6.5,0.5c2.6-1,7.8-2.8,7.3-6.2c-0.2-1.6-0.7-6.2-1.8-11.1c-0.4-3.9-1.8-8.1-3.8-9.3"/>
		<path class="st5" d="M233.2,154.5c0-0.3-1-2.5,0.5-5.5c0.5-3,3-6.7,8.5-9.2"/>
		<path class="st5" d="M102.5,189.1c0,0.9,2.5-2,5.3-2.7c3-1.6,6.1-2.7,6.7,0.2c1.3,1.8-1.9,4.1-5.5,5c-3.1,1.5-6.3,2.8-6.3,2.1
			c-0.5-0.1-2.7,2.5-5.9,0.4C93.6,192,102.5,188.9,102.5,189.1z"/>
		<path class="st6" d="M109.2,196.8c1.2,0.2,4.7-1.8,7.5-4.5c3.5-2.8,6.3-6.7,5.2-9.4c-3.5-4.5-7.2-8.6-7.3-8.6
			c1.3-0.5,3.7,2,7.5,4.9c2.1,1.8,4.5,3.8,6.2,6.3c2.6,1.8,5.2,4.6,7.5,6.3c2.2,1.9,4.5,3.9,5.5,6.3c1.8,1.8,2.9,4,4.6,4.7
			c0.8,1.5,2.5,4.2,3.2,7.4c1.4,3.7,1.5,6.7,1.8,9.2c-0.1,3,0.5,6.4,0.2,8.8c0.2,2.3,0,3.3,0,4.1"/>
		<path class="st6" d="M88,247.4c0.2-0.7-1.5-2.8-2.7-6.3c-0.6-2.2-1.3-4.6-2.9-7.4c0.1-2.6-0.6-5.6-0.2-8.8
			c-0.1-2.8,0.2-6.9,1-10.4c0.8-1.8,1.1-3.8,1.6-5.8c1.6-1.4,2.2-3.3,3.6-6.1c0.1,0.8,3.1,2.9,3.3,2.9c0.3-0.5-3.3-2.4-7.8-6.1
			c-2.8-2.8-6.3-6.5-6.1-9c0-4,0.5-7.5,1.6-9.1c0-2.7,0.4-3,0.8-3.7"/>
		<path class="st5" d="M143.9,141c-0.2,0-2.3-3.1-5.3-2.5c-3,0.2-4.6,0.5-8.9,0.8c-4.5,1.2-5.4,2.7-10.8,4.4c-6.4,2.2-2.6,1-2.7,1.1
			"/>
		<path class="st5" d="M145.5,145c0.1,0.3-4,2.7-11.7,2.6c-7.4,1.2-10.7-0.4-11.2-0.4"/>
		<path class="st5" d="M59,159.1c-0.5,0.3-4.6-0.9-9.9-2.5c-2.5-0.3-5.4-0.3-8-1.7c-2.2,0.2-4.9-0.7-5.9-0.8"/>
		<path class="st4" d="M34.7,160.3c-0.4,0.1,2.1,2.3,2.1,1.8c2.3,1,5.2,2.2,7.2,2.7c2.9,0.9,5.9,0.7,8.5,1.4
			c4.5,0.4,7.1,0.2,7.5,0.9"/>
		<path class="st5" d="M213.5,139.7"/>
		<path class="st5" d="M235,186.7c0.9-0.8,3.9-2.3,6.6-5.2c3.5-2.6,6.2-7.1,7.1-12.3c1.2-5.4-0.5-11.5-2-17
			c-1.5-4.8-4.2-8.5-5.9-8.8"/>
		<path class="st5" d="M81.5,149.7c-0.4,0.9-1.9-0.1-3.9-0.5c-3.2-0.8-6.1-1.1-9.5-0.2c-6.1,2.3-5.3,9.3-5.5,9.1
			c0.1-0.3,0.7,1,0.8,1.2"/>
		<path class="st5" d="M77.2,153.9c0.2-0.4-1.4,0.1-1,1.6c0.6,1.3,1.4,0.9,1.5,1c-0.1-0.4,0.8,0,1.6-1.6
			C79.8,152.9,76.8,154,77.2,153.9z"/>
		<path class="st5" d="M80.2,158.3c0.1,0.4-4.5,2.1-7.8,1.7c0.3,0.5-5.2,2.1-6.5,0.7c-1.3-1.3-0.7-4.2-0.8-6.1"/>
		<path class="st5" d="M165.9,282.5c0,0-1.5,2.1-3.9,4.4c-1.9,1.3-3.4,3-5.3,3.8c-2.1,1.3-4.1,2.4-6.8,3.7c-3.1,1.3-5.4,1.9-8.5,2.4
			c-3.2,0.3-7,0.4-10.6-0.3"/>
		<path class="st5" d="M108.6,221.6c-0.7,0.2-0.2,6.5,0.1,7.5"/>
		<path class="st5" d="M151.3,167.5c0.2-0.4,2.7,0.9,6.1,2.6c2.1,0.6,4.1,2.1,5.7,3.1c1.4,1.7,4.6,3.8,5.8,5.4
			c2,2.3,3.8,4.3,5.8,7.9c1.9,1.5,4.2,5.3,4.7,8.5"/>
		<path class="st5" d="M160.5,158.4c0.1-0.4,1.3-0.7,3.4,0.8c2.1,1.1,5.2,2.4,7.4,4c3.9,2.2,6.3,4.2,8.6,6.9
			c3.1,2.7,5.1,5.7,6.5,9.4"/>
		<path class="st5" d="M160.8,149.3c0.6,0.4,5.7,1.6,12.2,1.8c3.7,0.7,6.9,1.3,10.7,1.5c3.5,0.6,6.8,0.4,9.1,0.1"/>
		<path class="st5" d="M65.3,171.6c0.4,0.2,2.2-0.3,5.3-0.9c2.5-1.2,6.2-3,10-5.6"/>
		<path class="st5" d="M66.1,166.3c0.1,0.4,3.2,0.1,6-1.3c3.3-1,6.8-2.9,9.2-3.6"/>
		<path class="st5" d="M91,106.1c-1.6,0.8-4.8-0.5-7.7-1.4c-3.7-0.5-6.8-1.1-9.7-0.9c-2.6-1.3-3.2-1.2-5.3-1.6
			c-2.3,0.9-5.1,2.4-9,6.1"/>
		<path class="st5" d="M115.6,88.7c0.2-0.3-4,0.2-8.5,1.5c-1.5,1-4.3,1.6-7,1.1c-2.9,0.1-5,1.5-7.9,1c-4.8,0.8-7.1-0.1-8.6-1.8
			c-1.8-0.6-3.5-1.3-8.5-0.9c-4.6,0.6-7.8,1.8-8.9,3.1c-1.5,1.5-2,1.2-2.2,2.4"/>
		<path class="st5" d="M84.8,117.9c-0.3,0-3.6,7.1-3.1,8.9"/>
		<path class="st5" d="M91.3,132.6c0,0.5,3,3.2,4.5,2.8"/>
		<path class="st5" d="M89.5,119.1c-0.3-1,1.2,0.1,2.3,2.5c1.6,2.3,3.9,4.4,7,4.7"/>
		<path class="st5" d="M65.4,145.3c0.5,0.1-2.8,4.7-2.3,9.5"/>
		<path class="st5" d="M126.5,230.5c-0.5,0.1-0.9-0.1-3.2,0.2c0.3-0.4-5,2-4.9,1.6c0-0.7-8.4,1.4-8.2,1.8c-0.5,0.2,7.5-1.7,8.6-2
			c0.8,0.1,0.6-7.7-0.1-8c0.6-0.5-5.8-4.4-4.9-4.1"/>
		<path class="st5" d="M104.1,236.8c-0.3,0.2,0-1.9,1.5-1.9"/>
		<path class="st5" d="M95.8,148.3c0,0.4,2.5,1.9,5.3,4.9c3.3,2.4,5.9,6.1,7.4,8.9c1.7,6.4,2.1,6.3,2.1,6.2"/>
		<path class="st5" d="M213.8,229.4c-0.8,0.5-0.2-5.7,0.2-11.8c-0.8-2.8-0.1-6.9-0.8-9.5c0.6-3.9,0.4-7.4,0.7-10.3
			c0.4-5.4,2.7-10.7,3.5-10.4c-0.3,1-0.7,4.1,1.5,8.2c-1.1,1,0.7,3.9,3,4.3c1.6,2,4.2,2.9,8.7,1.1"/>
	</g>
</g>
</svg>
